solid ascii
 facet normal -1 0 0
  outer loop
   vertex -50 -50 -30
   vertex -50 -50 0
   vertex -50 0 -30
  endloop
 endfacet
 facet normal -1 0 0
  outer loop
   vertex -50 -50 0
   vertex -50 -50 30
   vertex -50 0 0
  endloop
 endfacet
 facet normal -1 0 0
  outer loop
   vertex -50 0 0
   vertex -50 50 -30
   vertex -50 0 -30
  endloop
 endfacet
 facet normal -1 -0 -0
  outer loop
   vertex -50 -50 0
   vertex -50 0 0
   vertex -50 0 -30
  endloop
 endfacet
 facet normal -1 0 0
  outer loop
   vertex -50 50 30
   vertex -50 50 0
   vertex -50 0 30
  endloop
 endfacet
 facet normal -1 0 0
  outer loop
   vertex -50 50 0
   vertex -50 50 -30
   vertex -50 0 0
  endloop
 endfacet
 facet normal -1 0 0
  outer loop
   vertex -50 0 0
   vertex -50 -50 30
   vertex -50 0 30
  endloop
 endfacet
 facet normal -1 0 0
  outer loop
   vertex -50 50 0
   vertex -50 0 0
   vertex -50 0 30
  endloop
 endfacet
 facet normal 1 0 0
  outer loop
   vertex 50 -50 -30
   vertex 50 0 -30
   vertex 50 -50 0
  endloop
 endfacet
 facet normal 1 0 0
  outer loop
   vertex 50 0 -30
   vertex 50 50 -30
   vertex 50 0 0
  endloop
 endfacet
 facet normal 1 0 0
  outer loop
   vertex 50 0 0
   vertex 50 -50 30
   vertex 50 -50 0
  endloop
 endfacet
 facet normal 1 0 0
  outer loop
   vertex 50 0 -30
   vertex 50 0 0
   vertex 50 -50 0
  endloop
 endfacet
 facet normal 1 -0 0
  outer loop
   vertex 50 50 30
   vertex 50 0 30
   vertex 50 50 0
  endloop
 endfacet
 facet normal 1 -0 0
  outer loop
   vertex 50 0 30
   vertex 50 -50 30
   vertex 50 0 0
  endloop
 endfacet
 facet normal 1 0 -0
  outer loop
   vertex 50 0 0
   vertex 50 50 -30
   vertex 50 50 0
  endloop
 endfacet
 facet normal 1 0 0
  outer loop
   vertex 50 0 30
   vertex 50 0 0
   vertex 50 50 0
  endloop
 endfacet
 facet normal 0 -1 0
  outer loop
   vertex -50 -50 -30
   vertex 0 -50 -30
   vertex -50 -50 0
  endloop
 endfacet
 facet normal 0 -1 0
  outer loop
   vertex 0 -50 -30
   vertex 50 -50 -30
   vertex 0 -50 0
  endloop
 endfacet
 facet normal 0 -1 0
  outer loop
   vertex 0 -50 0
   vertex -50 -50 30
   vertex -50 -50 0
  endloop
 endfacet
 facet normal -0 -1 -0
  outer loop
   vertex 0 -50 -30
   vertex 0 -50 0
   vertex -50 -50 0
  endloop
 endfacet
 facet normal 0 -1 0
  outer loop
   vertex 50 -50 30
   vertex 0 -50 30
   vertex 50 -50 0
  endloop
 endfacet
 facet normal 0 -1 0
  outer loop
   vertex 0 -50 30
   vertex -50 -50 30
   vertex 0 -50 0
  endloop
 endfacet
 facet normal 0 -1 0
  outer loop
   vertex 0 -50 0
   vertex 50 -50 -30
   vertex 50 -50 0
  endloop
 endfacet
 facet normal 0 -1 0
  outer loop
   vertex 0 -50 30
   vertex 0 -50 0
   vertex 50 -50 0
  endloop
 endfacet
 facet normal 0 1 0
  outer loop
   vertex -50 50 -30
   vertex -50 50 0
   vertex 0 50 -30
  endloop
 endfacet
 facet normal 0 1 0
  outer loop
   vertex -50 50 0
   vertex -50 50 30
   vertex 0 50 0
  endloop
 endfacet
 facet normal 0 1 0
  outer loop
   vertex 0 50 0
   vertex 50 50 -30
   vertex 0 50 -30
  endloop
 endfacet
 facet normal 0 1 0
  outer loop
   vertex -50 50 0
   vertex 0 50 0
   vertex 0 50 -30
  endloop
 endfacet
 facet normal 0 1 -0
  outer loop
   vertex 50 50 30
   vertex 50 50 0
   vertex 0 50 30
  endloop
 endfacet
 facet normal 0 1 -0
  outer loop
   vertex 50 50 0
   vertex 50 50 -30
   vertex 0 50 0
  endloop
 endfacet
 facet normal -0 1 0
  outer loop
   vertex 0 50 0
   vertex -50 50 30
   vertex 0 50 30
  endloop
 endfacet
 facet normal 0 1 0
  outer loop
   vertex 50 50 0
   vertex 0 50 0
   vertex 0 50 30
  endloop
 endfacet
 facet normal 0 0 -1
  outer loop
   vertex -50 -50 -30
   vertex -50 0 -30
   vertex 0 -50 -30
  endloop
 endfacet
 facet normal 0 0 -1
  outer loop
   vertex -50 0 -30
   vertex -50 50 -30
   vertex 0 0 -30
  endloop
 endfacet
 facet normal 0 0 -1
  outer loop
   vertex 0 0 -30
   vertex 50 -50 -30
   vertex 0 -50 -30
  endloop
 endfacet
 facet normal -0 -0 -1
  outer loop
   vertex -50 0 -30
   vertex 0 0 -30
   vertex 0 -50 -30
  endloop
 endfacet
 facet normal 0 0 -1
  outer loop
   vertex 50 50 -30
   vertex 50 0 -30
   vertex 0 50 -30
  endloop
 endfacet
 facet normal 0 0 -1
  outer loop
   vertex 50 0 -30
   vertex 50 -50 -30
   vertex 0 0 -30
  endloop
 endfacet
 facet normal 0 0 -1
  outer loop
   vertex 0 0 -30
   vertex -50 50 -30
   vertex 0 50 -30
  endloop
 endfacet
 facet normal 0 0 -1
  outer loop
   vertex 50 0 -30
   vertex 0 0 -30
   vertex 0 50 -30
  endloop
 endfacet
 facet normal 0 0 1
  outer loop
   vertex -50 -50 30
   vertex 0 -50 30
   vertex -50 0 30
  endloop
 endfacet
 facet normal 0 0 1
  outer loop
   vertex 0 -50 30
   vertex 50 -50 30
   vertex 0 0 30
  endloop
 endfacet
 facet normal 0 0 1
  outer loop
   vertex 0 0 30
   vertex -50 50 30
   vertex -50 0 30
  endloop
 endfacet
 facet normal 0 0 1
  outer loop
   vertex 0 -50 30
   vertex 0 0 30
   vertex -50 0 30
  endloop
 endfacet
 facet normal -0 0 1
  outer loop
   vertex 50 50 30
   vertex 0 50 30
   vertex 50 0 30
  endloop
 endfacet
 facet normal -0 0 1
  outer loop
   vertex 0 50 30
   vertex -50 50 30
   vertex 0 0 30
  endloop
 endfacet
 facet normal 0 -0 1
  outer loop
   vertex 0 0 30
   vertex 50 -50 30
   vertex 50 0 30
  endloop
 endfacet
 facet normal 0 0 1
  outer loop
   vertex 0 50 30
   vertex 0 0 30
   vertex 50 0 30
  endloop
 endfacet
endsolid
