solid ascii
 facet normal 0.19148 -0.19148 0.962637
  outer loop
   vertex 0 -1.43496 -7.78599
   vertex 0 0 -7.50056
   vertex -2.97957 -1.43496 -7.19332
  endloop
 endfacet
 facet normal 0.191481 -0.191481 0.962637
  outer loop
   vertex -2.97957 -1.43496 -7.19332
   vertex 0 0 -7.50056
   vertex -2.87034 0 -6.92962
  endloop
 endfacet
 facet normal 0.54529 -0.19148 0.816085
  outer loop
   vertex -2.97957 -1.43496 -7.19332
   vertex -2.87034 0 -6.92962
   vertex -5.50553 -1.43496 -5.50553
  endloop
 endfacet
 facet normal 0.54529 -0.191481 0.816084
  outer loop
   vertex -5.50553 -1.43496 -5.50553
   vertex -2.87034 0 -6.92962
   vertex -5.3037 0 -5.3037
  endloop
 endfacet
 facet normal 0.816084 -0.191481 0.54529
  outer loop
   vertex -5.50553 -1.43496 -5.50553
   vertex -5.3037 0 -5.3037
   vertex -7.19332 -1.43496 -2.97957
  endloop
 endfacet
 facet normal 0.816084 -0.19148 0.54529
  outer loop
   vertex -7.19332 -1.43496 -2.97957
   vertex -5.3037 0 -5.3037
   vertex -6.92962 0 -2.87034
  endloop
 endfacet
 facet normal 0.962637 -0.19148 0.19148
  outer loop
   vertex -7.19332 -1.43496 -2.97957
   vertex -6.92962 0 -2.87034
   vertex -7.78599 -1.43496 4.76755e-16
  endloop
 endfacet
 facet normal 0.962637 -0.19148 0.191481
  outer loop
   vertex -7.78599 -1.43496 4.76755e-16
   vertex -6.92962 0 -2.87034
   vertex -7.50056 0 4.59277e-16
  endloop
 endfacet
 facet normal 0.962637 -0.19148 -0.19148
  outer loop
   vertex -7.78599 -1.43496 4.76755e-16
   vertex -7.50056 0 4.59277e-16
   vertex -7.19332 -1.43496 2.97957
  endloop
 endfacet
 facet normal 0.962637 -0.191481 -0.191481
  outer loop
   vertex -7.19332 -1.43496 2.97957
   vertex -7.50056 0 4.59277e-16
   vertex -6.92962 0 2.87034
  endloop
 endfacet
 facet normal 0.816085 -0.19148 -0.54529
  outer loop
   vertex -7.19332 -1.43496 2.97957
   vertex -6.92962 0 2.87034
   vertex -5.50553 -1.43496 5.50553
  endloop
 endfacet
 facet normal 0.816084 -0.191481 -0.54529
  outer loop
   vertex -5.50553 -1.43496 5.50553
   vertex -6.92962 0 2.87034
   vertex -5.3037 0 5.3037
  endloop
 endfacet
 facet normal 0.54529 -0.191481 -0.816084
  outer loop
   vertex -5.50553 -1.43496 5.50553
   vertex -5.3037 0 5.3037
   vertex -2.97957 -1.43496 7.19332
  endloop
 endfacet
 facet normal 0.54529 -0.19148 -0.816084
  outer loop
   vertex -2.97957 -1.43496 7.19332
   vertex -5.3037 0 5.3037
   vertex -2.87034 0 6.92962
  endloop
 endfacet
 facet normal 0.19148 -0.19148 -0.962637
  outer loop
   vertex -2.97957 -1.43496 7.19332
   vertex -2.87034 0 6.92962
   vertex 0 -1.43496 7.78599
  endloop
 endfacet
 facet normal 0.191481 -0.19148 -0.962637
  outer loop
   vertex 0 -1.43496 7.78599
   vertex -2.87034 0 6.92962
   vertex 0 0 7.50056
  endloop
 endfacet
 facet normal -0.19148 -0.19148 -0.962637
  outer loop
   vertex 0 -1.43496 7.78599
   vertex 0 0 7.50056
   vertex 2.97957 -1.43496 7.19332
  endloop
 endfacet
 facet normal -0.191481 -0.191481 -0.962637
  outer loop
   vertex 2.97957 -1.43496 7.19332
   vertex 0 0 7.50056
   vertex 2.87034 0 6.92962
  endloop
 endfacet
 facet normal -0.54529 -0.19148 -0.816085
  outer loop
   vertex 2.97957 -1.43496 7.19332
   vertex 2.87034 0 6.92962
   vertex 5.50553 -1.43496 5.50553
  endloop
 endfacet
 facet normal -0.54529 -0.191481 -0.816084
  outer loop
   vertex 5.50553 -1.43496 5.50553
   vertex 2.87034 0 6.92962
   vertex 5.3037 0 5.3037
  endloop
 endfacet
 facet normal -0.816084 -0.191481 -0.54529
  outer loop
   vertex 5.50553 -1.43496 5.50553
   vertex 5.3037 0 5.3037
   vertex 7.19332 -1.43496 2.97957
  endloop
 endfacet
 facet normal -0.816084 -0.19148 -0.54529
  outer loop
   vertex 7.19332 -1.43496 2.97957
   vertex 5.3037 0 5.3037
   vertex 6.92962 0 2.87034
  endloop
 endfacet
 facet normal -0.962637 -0.19148 -0.19148
  outer loop
   vertex 7.19332 -1.43496 2.97957
   vertex 6.92962 0 2.87034
   vertex 7.78599 -1.43496 4.76755e-16
  endloop
 endfacet
 facet normal -0.962637 -0.19148 -0.191481
  outer loop
   vertex 7.78599 -1.43496 4.76755e-16
   vertex 6.92962 0 2.87034
   vertex 7.50056 0 4.59277e-16
  endloop
 endfacet
 facet normal -0.962637 -0.19148 0.19148
  outer loop
   vertex 7.78599 -1.43496 4.76755e-16
   vertex 7.50056 0 4.59277e-16
   vertex 7.19332 -1.43496 -2.97957
  endloop
 endfacet
 facet normal -0.962637 -0.191481 0.191481
  outer loop
   vertex 7.19332 -1.43496 -2.97957
   vertex 7.50056 0 4.59277e-16
   vertex 6.92962 0 -2.87034
  endloop
 endfacet
 facet normal -0.816085 -0.19148 0.54529
  outer loop
   vertex 7.19332 -1.43496 -2.97957
   vertex 6.92962 0 -2.87034
   vertex 5.50553 -1.43496 -5.50553
  endloop
 endfacet
 facet normal -0.816084 -0.191481 0.54529
  outer loop
   vertex 5.50553 -1.43496 -5.50553
   vertex 6.92962 0 -2.87034
   vertex 5.3037 0 -5.3037
  endloop
 endfacet
 facet normal -0.54529 -0.191481 0.816084
  outer loop
   vertex 5.50553 -1.43496 -5.50553
   vertex 5.3037 0 -5.3037
   vertex 2.97957 -1.43496 -7.19332
  endloop
 endfacet
 facet normal -0.54529 -0.19148 0.816084
  outer loop
   vertex 2.97957 -1.43496 -7.19332
   vertex 5.3037 0 -5.3037
   vertex 2.87034 0 -6.92962
  endloop
 endfacet
 facet normal -0.19148 -0.19148 0.962637
  outer loop
   vertex 2.97957 -1.43496 -7.19332
   vertex 2.87034 0 -6.92962
   vertex 0 -1.43496 -7.78599
  endloop
 endfacet
 facet normal -0.191481 -0.19148 0.962637
  outer loop
   vertex 0 -1.43496 -7.78599
   vertex 2.87034 0 -6.92962
   vertex 0 0 -7.50056
  endloop
 endfacet
 facet normal 0.163173 -0.548124 0.820326
  outer loop
   vertex 0 -2.65145 -8.59883
   vertex 0 -1.43496 -7.78599
   vertex -3.29063 -2.65145 -7.94428
  endloop
 endfacet
 facet normal 0.163173 -0.548124 0.820326
  outer loop
   vertex -3.29063 -2.65145 -7.94428
   vertex 0 -1.43496 -7.78599
   vertex -2.97957 -1.43496 -7.19332
  endloop
 endfacet
 facet normal 0.464677 -0.548124 0.695439
  outer loop
   vertex -3.29063 -2.65145 -7.94428
   vertex -2.97957 -1.43496 -7.19332
   vertex -6.08029 -2.65145 -6.08029
  endloop
 endfacet
 facet normal 0.464677 -0.548124 0.695439
  outer loop
   vertex -6.08029 -2.65145 -6.08029
   vertex -2.97957 -1.43496 -7.19332
   vertex -5.50553 -1.43496 -5.50553
  endloop
 endfacet
 facet normal 0.695439 -0.548124 0.464677
  outer loop
   vertex -6.08029 -2.65145 -6.08029
   vertex -5.50553 -1.43496 -5.50553
   vertex -7.94428 -2.65145 -3.29063
  endloop
 endfacet
 facet normal 0.695439 -0.548124 0.464677
  outer loop
   vertex -7.94428 -2.65145 -3.29063
   vertex -5.50553 -1.43496 -5.50553
   vertex -7.19332 -1.43496 -2.97957
  endloop
 endfacet
 facet normal 0.820326 -0.548124 0.163173
  outer loop
   vertex -7.94428 -2.65145 -3.29063
   vertex -7.19332 -1.43496 -2.97957
   vertex -8.59883 -2.65145 5.26526e-16
  endloop
 endfacet
 facet normal 0.820326 -0.548124 0.163173
  outer loop
   vertex -8.59883 -2.65145 5.26526e-16
   vertex -7.19332 -1.43496 -2.97957
   vertex -7.78599 -1.43496 4.76755e-16
  endloop
 endfacet
 facet normal 0.820326 -0.548124 -0.163173
  outer loop
   vertex -8.59883 -2.65145 5.26526e-16
   vertex -7.78599 -1.43496 4.76755e-16
   vertex -7.94428 -2.65145 3.29063
  endloop
 endfacet
 facet normal 0.820326 -0.548124 -0.163173
  outer loop
   vertex -7.94428 -2.65145 3.29063
   vertex -7.78599 -1.43496 4.76755e-16
   vertex -7.19332 -1.43496 2.97957
  endloop
 endfacet
 facet normal 0.695439 -0.548124 -0.464677
  outer loop
   vertex -7.94428 -2.65145 3.29063
   vertex -7.19332 -1.43496 2.97957
   vertex -6.08029 -2.65145 6.08029
  endloop
 endfacet
 facet normal 0.695439 -0.548124 -0.464677
  outer loop
   vertex -6.08029 -2.65145 6.08029
   vertex -7.19332 -1.43496 2.97957
   vertex -5.50553 -1.43496 5.50553
  endloop
 endfacet
 facet normal 0.464677 -0.548124 -0.695439
  outer loop
   vertex -6.08029 -2.65145 6.08029
   vertex -5.50553 -1.43496 5.50553
   vertex -3.29063 -2.65145 7.94428
  endloop
 endfacet
 facet normal 0.464677 -0.548124 -0.695439
  outer loop
   vertex -3.29063 -2.65145 7.94428
   vertex -5.50553 -1.43496 5.50553
   vertex -2.97957 -1.43496 7.19332
  endloop
 endfacet
 facet normal 0.163173 -0.548124 -0.820326
  outer loop
   vertex -3.29063 -2.65145 7.94428
   vertex -2.97957 -1.43496 7.19332
   vertex 0 -2.65145 8.59883
  endloop
 endfacet
 facet normal 0.163173 -0.548124 -0.820326
  outer loop
   vertex 0 -2.65145 8.59883
   vertex -2.97957 -1.43496 7.19332
   vertex 0 -1.43496 7.78599
  endloop
 endfacet
 facet normal -0.163173 -0.548124 -0.820326
  outer loop
   vertex 0 -2.65145 8.59883
   vertex 0 -1.43496 7.78599
   vertex 3.29063 -2.65145 7.94428
  endloop
 endfacet
 facet normal -0.163173 -0.548124 -0.820326
  outer loop
   vertex 3.29063 -2.65145 7.94428
   vertex 0 -1.43496 7.78599
   vertex 2.97957 -1.43496 7.19332
  endloop
 endfacet
 facet normal -0.464677 -0.548124 -0.695439
  outer loop
   vertex 3.29063 -2.65145 7.94428
   vertex 2.97957 -1.43496 7.19332
   vertex 6.08029 -2.65145 6.08029
  endloop
 endfacet
 facet normal -0.464677 -0.548124 -0.695439
  outer loop
   vertex 6.08029 -2.65145 6.08029
   vertex 2.97957 -1.43496 7.19332
   vertex 5.50553 -1.43496 5.50553
  endloop
 endfacet
 facet normal -0.695439 -0.548124 -0.464677
  outer loop
   vertex 6.08029 -2.65145 6.08029
   vertex 5.50553 -1.43496 5.50553
   vertex 7.94428 -2.65145 3.29063
  endloop
 endfacet
 facet normal -0.695439 -0.548124 -0.464677
  outer loop
   vertex 7.94428 -2.65145 3.29063
   vertex 5.50553 -1.43496 5.50553
   vertex 7.19332 -1.43496 2.97957
  endloop
 endfacet
 facet normal -0.820326 -0.548124 -0.163173
  outer loop
   vertex 7.94428 -2.65145 3.29063
   vertex 7.19332 -1.43496 2.97957
   vertex 8.59883 -2.65145 5.26526e-16
  endloop
 endfacet
 facet normal -0.820326 -0.548124 -0.163173
  outer loop
   vertex 8.59883 -2.65145 5.26526e-16
   vertex 7.19332 -1.43496 2.97957
   vertex 7.78599 -1.43496 4.76755e-16
  endloop
 endfacet
 facet normal -0.820326 -0.548124 0.163173
  outer loop
   vertex 8.59883 -2.65145 5.26526e-16
   vertex 7.78599 -1.43496 4.76755e-16
   vertex 7.94428 -2.65145 -3.29063
  endloop
 endfacet
 facet normal -0.820326 -0.548124 0.163173
  outer loop
   vertex 7.94428 -2.65145 -3.29063
   vertex 7.78599 -1.43496 4.76755e-16
   vertex 7.19332 -1.43496 -2.97957
  endloop
 endfacet
 facet normal -0.695439 -0.548124 0.464677
  outer loop
   vertex 7.94428 -2.65145 -3.29063
   vertex 7.19332 -1.43496 -2.97957
   vertex 6.08029 -2.65145 -6.08029
  endloop
 endfacet
 facet normal -0.695439 -0.548124 0.464677
  outer loop
   vertex 6.08029 -2.65145 -6.08029
   vertex 7.19332 -1.43496 -2.97957
   vertex 5.50553 -1.43496 -5.50553
  endloop
 endfacet
 facet normal -0.464677 -0.548124 0.695439
  outer loop
   vertex 6.08029 -2.65145 -6.08029
   vertex 5.50553 -1.43496 -5.50553
   vertex 3.29063 -2.65145 -7.94428
  endloop
 endfacet
 facet normal -0.464677 -0.548124 0.695439
  outer loop
   vertex 3.29063 -2.65145 -7.94428
   vertex 5.50553 -1.43496 -5.50553
   vertex 2.97957 -1.43496 -7.19332
  endloop
 endfacet
 facet normal -0.163173 -0.548124 0.820326
  outer loop
   vertex 3.29063 -2.65145 -7.94428
   vertex 2.97957 -1.43496 -7.19332
   vertex 0 -2.65145 -8.59883
  endloop
 endfacet
 facet normal -0.163173 -0.548124 0.820326
  outer loop
   vertex 0 -2.65145 -8.59883
   vertex 2.97957 -1.43496 -7.19332
   vertex 0 -1.43496 -7.78599
  endloop
 endfacet
 facet normal 0.109841 -0.826439 0.552209
  outer loop
   vertex 0 -3.46429 -9.81533
   vertex 0 -2.65145 -8.59883
   vertex -3.75616 -3.46429 -9.06818
  endloop
 endfacet
 facet normal 0.109841 -0.826439 0.552208
  outer loop
   vertex -3.75616 -3.46429 -9.06818
   vertex 0 -2.65145 -8.59883
   vertex -3.29063 -2.65145 -7.94428
  endloop
 endfacet
 facet normal 0.312801 -0.826439 0.46814
  outer loop
   vertex -3.75616 -3.46429 -9.06818
   vertex -3.29063 -2.65145 -7.94428
   vertex -6.94048 -3.46429 -6.94048
  endloop
 endfacet
 facet normal 0.312801 -0.826439 0.46814
  outer loop
   vertex -6.94048 -3.46429 -6.94048
   vertex -3.29063 -2.65145 -7.94428
   vertex -6.08029 -2.65145 -6.08029
  endloop
 endfacet
 facet normal 0.46814 -0.826439 0.312801
  outer loop
   vertex -6.94048 -3.46429 -6.94048
   vertex -6.08029 -2.65145 -6.08029
   vertex -9.06818 -3.46429 -3.75616
  endloop
 endfacet
 facet normal 0.46814 -0.826439 0.312801
  outer loop
   vertex -9.06818 -3.46429 -3.75616
   vertex -6.08029 -2.65145 -6.08029
   vertex -7.94428 -2.65145 -3.29063
  endloop
 endfacet
 facet normal 0.552208 -0.826439 0.109841
  outer loop
   vertex -9.06818 -3.46429 -3.75616
   vertex -7.94428 -2.65145 -3.29063
   vertex -9.81533 -3.46429 6.01015e-16
  endloop
 endfacet
 facet normal 0.552209 -0.826439 0.109841
  outer loop
   vertex -9.81533 -3.46429 6.01015e-16
   vertex -7.94428 -2.65145 -3.29063
   vertex -8.59883 -2.65145 5.26526e-16
  endloop
 endfacet
 facet normal 0.552209 -0.826439 -0.109841
  outer loop
   vertex -9.81533 -3.46429 6.01015e-16
   vertex -8.59883 -2.65145 5.26526e-16
   vertex -9.06818 -3.46429 3.75616
  endloop
 endfacet
 facet normal 0.552208 -0.826439 -0.109841
  outer loop
   vertex -9.06818 -3.46429 3.75616
   vertex -8.59883 -2.65145 5.26526e-16
   vertex -7.94428 -2.65145 3.29063
  endloop
 endfacet
 facet normal 0.46814 -0.826439 -0.312801
  outer loop
   vertex -9.06818 -3.46429 3.75616
   vertex -7.94428 -2.65145 3.29063
   vertex -6.94048 -3.46429 6.94048
  endloop
 endfacet
 facet normal 0.46814 -0.826439 -0.312801
  outer loop
   vertex -6.94048 -3.46429 6.94048
   vertex -7.94428 -2.65145 3.29063
   vertex -6.08029 -2.65145 6.08029
  endloop
 endfacet
 facet normal 0.312801 -0.826439 -0.46814
  outer loop
   vertex -6.94048 -3.46429 6.94048
   vertex -6.08029 -2.65145 6.08029
   vertex -3.75616 -3.46429 9.06818
  endloop
 endfacet
 facet normal 0.312801 -0.826439 -0.46814
  outer loop
   vertex -3.75616 -3.46429 9.06818
   vertex -6.08029 -2.65145 6.08029
   vertex -3.29063 -2.65145 7.94428
  endloop
 endfacet
 facet normal 0.109841 -0.826439 -0.552208
  outer loop
   vertex -3.75616 -3.46429 9.06818
   vertex -3.29063 -2.65145 7.94428
   vertex 0 -3.46429 9.81533
  endloop
 endfacet
 facet normal 0.109841 -0.826439 -0.552209
  outer loop
   vertex 0 -3.46429 9.81533
   vertex -3.29063 -2.65145 7.94428
   vertex 0 -2.65145 8.59883
  endloop
 endfacet
 facet normal -0.109841 -0.826439 -0.552209
  outer loop
   vertex 0 -3.46429 9.81533
   vertex 0 -2.65145 8.59883
   vertex 3.75616 -3.46429 9.06818
  endloop
 endfacet
 facet normal -0.109841 -0.826439 -0.552208
  outer loop
   vertex 3.75616 -3.46429 9.06818
   vertex 0 -2.65145 8.59883
   vertex 3.29063 -2.65145 7.94428
  endloop
 endfacet
 facet normal -0.312801 -0.826439 -0.46814
  outer loop
   vertex 3.75616 -3.46429 9.06818
   vertex 3.29063 -2.65145 7.94428
   vertex 6.94048 -3.46429 6.94048
  endloop
 endfacet
 facet normal -0.312801 -0.826439 -0.46814
  outer loop
   vertex 6.94048 -3.46429 6.94048
   vertex 3.29063 -2.65145 7.94428
   vertex 6.08029 -2.65145 6.08029
  endloop
 endfacet
 facet normal -0.46814 -0.826439 -0.312801
  outer loop
   vertex 6.94048 -3.46429 6.94048
   vertex 6.08029 -2.65145 6.08029
   vertex 9.06818 -3.46429 3.75616
  endloop
 endfacet
 facet normal -0.46814 -0.826439 -0.312801
  outer loop
   vertex 9.06818 -3.46429 3.75616
   vertex 6.08029 -2.65145 6.08029
   vertex 7.94428 -2.65145 3.29063
  endloop
 endfacet
 facet normal -0.552208 -0.826439 -0.109841
  outer loop
   vertex 9.06818 -3.46429 3.75616
   vertex 7.94428 -2.65145 3.29063
   vertex 9.81533 -3.46429 6.01015e-16
  endloop
 endfacet
 facet normal -0.552209 -0.826439 -0.109841
  outer loop
   vertex 9.81533 -3.46429 6.01015e-16
   vertex 7.94428 -2.65145 3.29063
   vertex 8.59883 -2.65145 5.26526e-16
  endloop
 endfacet
 facet normal -0.552209 -0.826439 0.109841
  outer loop
   vertex 9.81533 -3.46429 6.01015e-16
   vertex 8.59883 -2.65145 5.26526e-16
   vertex 9.06818 -3.46429 -3.75616
  endloop
 endfacet
 facet normal -0.552208 -0.826439 0.109841
  outer loop
   vertex 9.06818 -3.46429 -3.75616
   vertex 8.59883 -2.65145 5.26526e-16
   vertex 7.94428 -2.65145 -3.29063
  endloop
 endfacet
 facet normal -0.46814 -0.826439 0.312801
  outer loop
   vertex 9.06818 -3.46429 -3.75616
   vertex 7.94428 -2.65145 -3.29063
   vertex 6.94048 -3.46429 -6.94048
  endloop
 endfacet
 facet normal -0.46814 -0.826439 0.312801
  outer loop
   vertex 6.94048 -3.46429 -6.94048
   vertex 7.94428 -2.65145 -3.29063
   vertex 6.08029 -2.65145 -6.08029
  endloop
 endfacet
 facet normal -0.312801 -0.826439 0.46814
  outer loop
   vertex 6.94048 -3.46429 -6.94048
   vertex 6.08029 -2.65145 -6.08029
   vertex 3.75616 -3.46429 -9.06818
  endloop
 endfacet
 facet normal -0.312801 -0.826439 0.46814
  outer loop
   vertex 3.75616 -3.46429 -9.06818
   vertex 6.08029 -2.65145 -6.08029
   vertex 3.29063 -2.65145 -7.94428
  endloop
 endfacet
 facet normal -0.109841 -0.826439 0.552208
  outer loop
   vertex 3.75616 -3.46429 -9.06818
   vertex 3.29063 -2.65145 -7.94428
   vertex 0 -3.46429 -9.81533
  endloop
 endfacet
 facet normal -0.109841 -0.826439 0.552209
  outer loop
   vertex 0 -3.46429 -9.81533
   vertex 3.29063 -2.65145 -7.94428
   vertex 0 -2.65145 -8.59883
  endloop
 endfacet
 facet normal 0.0387767 -0.980048 0.194943
  outer loop
   vertex 0 -3.74972 -11.2503
   vertex 0 -3.46429 -9.81533
   vertex -4.3053 -3.74972 -10.3939
  endloop
 endfacet
 facet normal 0.0387766 -0.980048 0.194944
  outer loop
   vertex -4.3053 -3.74972 -10.3939
   vertex 0 -3.46429 -9.81533
   vertex -3.75616 -3.46429 -9.06818
  endloop
 endfacet
 facet normal 0.110427 -0.980048 0.165265
  outer loop
   vertex -4.3053 -3.74972 -10.3939
   vertex -3.75616 -3.46429 -9.06818
   vertex -7.95515 -3.74972 -7.95515
  endloop
 endfacet
 facet normal 0.110427 -0.980048 0.165265
  outer loop
   vertex -7.95515 -3.74972 -7.95515
   vertex -3.75616 -3.46429 -9.06818
   vertex -6.94048 -3.46429 -6.94048
  endloop
 endfacet
 facet normal 0.165265 -0.980048 0.110427
  outer loop
   vertex -7.95515 -3.74972 -7.95515
   vertex -6.94048 -3.46429 -6.94048
   vertex -10.3939 -3.74972 -4.3053
  endloop
 endfacet
 facet normal 0.165265 -0.980048 0.110427
  outer loop
   vertex -10.3939 -3.74972 -4.3053
   vertex -6.94048 -3.46429 -6.94048
   vertex -9.06818 -3.46429 -3.75616
  endloop
 endfacet
 facet normal 0.194944 -0.980048 0.0387767
  outer loop
   vertex -10.3939 -3.74972 -4.3053
   vertex -9.06818 -3.46429 -3.75616
   vertex -11.2503 -3.74972 6.88881e-16
  endloop
 endfacet
 facet normal 0.194943 -0.980048 0.0387766
  outer loop
   vertex -11.2503 -3.74972 6.88881e-16
   vertex -9.06818 -3.46429 -3.75616
   vertex -9.81533 -3.46429 6.01015e-16
  endloop
 endfacet
 facet normal 0.194943 -0.980048 -0.0387767
  outer loop
   vertex -11.2503 -3.74972 6.88881e-16
   vertex -9.81533 -3.46429 6.01015e-16
   vertex -10.3939 -3.74972 4.3053
  endloop
 endfacet
 facet normal 0.194944 -0.980048 -0.0387766
  outer loop
   vertex -10.3939 -3.74972 4.3053
   vertex -9.81533 -3.46429 6.01015e-16
   vertex -9.06818 -3.46429 3.75616
  endloop
 endfacet
 facet normal 0.165265 -0.980048 -0.110427
  outer loop
   vertex -10.3939 -3.74972 4.3053
   vertex -9.06818 -3.46429 3.75616
   vertex -7.95515 -3.74972 7.95515
  endloop
 endfacet
 facet normal 0.165265 -0.980048 -0.110427
  outer loop
   vertex -7.95515 -3.74972 7.95515
   vertex -9.06818 -3.46429 3.75616
   vertex -6.94048 -3.46429 6.94048
  endloop
 endfacet
 facet normal 0.110427 -0.980048 -0.165265
  outer loop
   vertex -7.95515 -3.74972 7.95515
   vertex -6.94048 -3.46429 6.94048
   vertex -4.3053 -3.74972 10.3939
  endloop
 endfacet
 facet normal 0.110427 -0.980048 -0.165265
  outer loop
   vertex -4.3053 -3.74972 10.3939
   vertex -6.94048 -3.46429 6.94048
   vertex -3.75616 -3.46429 9.06818
  endloop
 endfacet
 facet normal 0.0387767 -0.980048 -0.194944
  outer loop
   vertex -4.3053 -3.74972 10.3939
   vertex -3.75616 -3.46429 9.06818
   vertex 0 -3.74972 11.2503
  endloop
 endfacet
 facet normal 0.0387766 -0.980048 -0.194943
  outer loop
   vertex 0 -3.74972 11.2503
   vertex -3.75616 -3.46429 9.06818
   vertex 0 -3.46429 9.81533
  endloop
 endfacet
 facet normal -0.0387767 -0.980048 -0.194943
  outer loop
   vertex 0 -3.74972 11.2503
   vertex 0 -3.46429 9.81533
   vertex 4.3053 -3.74972 10.3939
  endloop
 endfacet
 facet normal -0.0387766 -0.980048 -0.194944
  outer loop
   vertex 4.3053 -3.74972 10.3939
   vertex 0 -3.46429 9.81533
   vertex 3.75616 -3.46429 9.06818
  endloop
 endfacet
 facet normal -0.110427 -0.980048 -0.165265
  outer loop
   vertex 4.3053 -3.74972 10.3939
   vertex 3.75616 -3.46429 9.06818
   vertex 7.95515 -3.74972 7.95515
  endloop
 endfacet
 facet normal -0.110427 -0.980048 -0.165265
  outer loop
   vertex 7.95515 -3.74972 7.95515
   vertex 3.75616 -3.46429 9.06818
   vertex 6.94048 -3.46429 6.94048
  endloop
 endfacet
 facet normal -0.165265 -0.980048 -0.110427
  outer loop
   vertex 7.95515 -3.74972 7.95515
   vertex 6.94048 -3.46429 6.94048
   vertex 10.3939 -3.74972 4.3053
  endloop
 endfacet
 facet normal -0.165265 -0.980048 -0.110427
  outer loop
   vertex 10.3939 -3.74972 4.3053
   vertex 6.94048 -3.46429 6.94048
   vertex 9.06818 -3.46429 3.75616
  endloop
 endfacet
 facet normal -0.194944 -0.980048 -0.0387767
  outer loop
   vertex 10.3939 -3.74972 4.3053
   vertex 9.06818 -3.46429 3.75616
   vertex 11.2503 -3.74972 6.88881e-16
  endloop
 endfacet
 facet normal -0.194943 -0.980048 -0.0387766
  outer loop
   vertex 11.2503 -3.74972 6.88881e-16
   vertex 9.06818 -3.46429 3.75616
   vertex 9.81533 -3.46429 6.01015e-16
  endloop
 endfacet
 facet normal -0.194943 -0.980048 0.0387767
  outer loop
   vertex 11.2503 -3.74972 6.88881e-16
   vertex 9.81533 -3.46429 6.01015e-16
   vertex 10.3939 -3.74972 -4.3053
  endloop
 endfacet
 facet normal -0.194944 -0.980048 0.0387766
  outer loop
   vertex 10.3939 -3.74972 -4.3053
   vertex 9.81533 -3.46429 6.01015e-16
   vertex 9.06818 -3.46429 -3.75616
  endloop
 endfacet
 facet normal -0.165265 -0.980048 0.110427
  outer loop
   vertex 10.3939 -3.74972 -4.3053
   vertex 9.06818 -3.46429 -3.75616
   vertex 7.95515 -3.74972 -7.95515
  endloop
 endfacet
 facet normal -0.165265 -0.980048 0.110427
  outer loop
   vertex 7.95515 -3.74972 -7.95515
   vertex 9.06818 -3.46429 -3.75616
   vertex 6.94048 -3.46429 -6.94048
  endloop
 endfacet
 facet normal -0.110427 -0.980048 0.165265
  outer loop
   vertex 7.95515 -3.74972 -7.95515
   vertex 6.94048 -3.46429 -6.94048
   vertex 4.3053 -3.74972 -10.3939
  endloop
 endfacet
 facet normal -0.110427 -0.980048 0.165265
  outer loop
   vertex 4.3053 -3.74972 -10.3939
   vertex 6.94048 -3.46429 -6.94048
   vertex 3.75616 -3.46429 -9.06818
  endloop
 endfacet
 facet normal -0.0387767 -0.980048 0.194944
  outer loop
   vertex 4.3053 -3.74972 -10.3939
   vertex 3.75616 -3.46429 -9.06818
   vertex 0 -3.74972 -11.2503
  endloop
 endfacet
 facet normal -0.0387766 -0.980048 0.194943
  outer loop
   vertex 0 -3.74972 -11.2503
   vertex 3.75616 -3.46429 -9.06818
   vertex 0 -3.46429 -9.81533
  endloop
 endfacet
 facet normal -0.0387767 -0.980048 -0.194943
  outer loop
   vertex 0 -3.46429 -12.6852
   vertex 0 -3.74972 -11.2503
   vertex -4.85443 -3.46429 -11.7196
  endloop
 endfacet
 facet normal -0.0387767 -0.980048 -0.194944
  outer loop
   vertex -4.85443 -3.46429 -11.7196
   vertex 0 -3.74972 -11.2503
   vertex -4.3053 -3.74972 -10.3939
  endloop
 endfacet
 facet normal -0.110427 -0.980048 -0.165265
  outer loop
   vertex -4.85443 -3.46429 -11.7196
   vertex -4.3053 -3.74972 -10.3939
   vertex -8.96982 -3.46429 -8.96982
  endloop
 endfacet
 facet normal -0.110427 -0.980048 -0.165265
  outer loop
   vertex -8.96982 -3.46429 -8.96982
   vertex -4.3053 -3.74972 -10.3939
   vertex -7.95515 -3.74972 -7.95515
  endloop
 endfacet
 facet normal -0.165265 -0.980048 -0.110427
  outer loop
   vertex -8.96982 -3.46429 -8.96982
   vertex -7.95515 -3.74972 -7.95515
   vertex -11.7196 -3.46429 -4.85443
  endloop
 endfacet
 facet normal -0.165265 -0.980048 -0.110427
  outer loop
   vertex -11.7196 -3.46429 -4.85443
   vertex -7.95515 -3.74972 -7.95515
   vertex -10.3939 -3.74972 -4.3053
  endloop
 endfacet
 facet normal -0.194944 -0.980048 -0.0387767
  outer loop
   vertex -11.7196 -3.46429 -4.85443
   vertex -10.3939 -3.74972 -4.3053
   vertex -12.6852 -3.46429 7.76747e-16
  endloop
 endfacet
 facet normal -0.194943 -0.980048 -0.0387767
  outer loop
   vertex -12.6852 -3.46429 7.76747e-16
   vertex -10.3939 -3.74972 -4.3053
   vertex -11.2503 -3.74972 6.88881e-16
  endloop
 endfacet
 facet normal -0.194943 -0.980048 0.0387767
  outer loop
   vertex -12.6852 -3.46429 7.76747e-16
   vertex -11.2503 -3.74972 6.88881e-16
   vertex -11.7196 -3.46429 4.85443
  endloop
 endfacet
 facet normal -0.194944 -0.980048 0.0387767
  outer loop
   vertex -11.7196 -3.46429 4.85443
   vertex -11.2503 -3.74972 6.88881e-16
   vertex -10.3939 -3.74972 4.3053
  endloop
 endfacet
 facet normal -0.165265 -0.980048 0.110427
  outer loop
   vertex -11.7196 -3.46429 4.85443
   vertex -10.3939 -3.74972 4.3053
   vertex -8.96982 -3.46429 8.96982
  endloop
 endfacet
 facet normal -0.165265 -0.980048 0.110427
  outer loop
   vertex -8.96982 -3.46429 8.96982
   vertex -10.3939 -3.74972 4.3053
   vertex -7.95515 -3.74972 7.95515
  endloop
 endfacet
 facet normal -0.110427 -0.980048 0.165265
  outer loop
   vertex -8.96982 -3.46429 8.96982
   vertex -7.95515 -3.74972 7.95515
   vertex -4.85443 -3.46429 11.7196
  endloop
 endfacet
 facet normal -0.110427 -0.980048 0.165265
  outer loop
   vertex -4.85443 -3.46429 11.7196
   vertex -7.95515 -3.74972 7.95515
   vertex -4.3053 -3.74972 10.3939
  endloop
 endfacet
 facet normal -0.0387767 -0.980048 0.194944
  outer loop
   vertex -4.85443 -3.46429 11.7196
   vertex -4.3053 -3.74972 10.3939
   vertex 0 -3.46429 12.6852
  endloop
 endfacet
 facet normal -0.0387767 -0.980048 0.194943
  outer loop
   vertex 0 -3.46429 12.6852
   vertex -4.3053 -3.74972 10.3939
   vertex 0 -3.74972 11.2503
  endloop
 endfacet
 facet normal 0.0387767 -0.980048 0.194943
  outer loop
   vertex 0 -3.46429 12.6852
   vertex 0 -3.74972 11.2503
   vertex 4.85443 -3.46429 11.7196
  endloop
 endfacet
 facet normal 0.0387767 -0.980048 0.194944
  outer loop
   vertex 4.85443 -3.46429 11.7196
   vertex 0 -3.74972 11.2503
   vertex 4.3053 -3.74972 10.3939
  endloop
 endfacet
 facet normal 0.110427 -0.980048 0.165265
  outer loop
   vertex 4.85443 -3.46429 11.7196
   vertex 4.3053 -3.74972 10.3939
   vertex 8.96982 -3.46429 8.96982
  endloop
 endfacet
 facet normal 0.110427 -0.980048 0.165265
  outer loop
   vertex 8.96982 -3.46429 8.96982
   vertex 4.3053 -3.74972 10.3939
   vertex 7.95515 -3.74972 7.95515
  endloop
 endfacet
 facet normal 0.165265 -0.980048 0.110427
  outer loop
   vertex 8.96982 -3.46429 8.96982
   vertex 7.95515 -3.74972 7.95515
   vertex 11.7196 -3.46429 4.85443
  endloop
 endfacet
 facet normal 0.165265 -0.980048 0.110427
  outer loop
   vertex 11.7196 -3.46429 4.85443
   vertex 7.95515 -3.74972 7.95515
   vertex 10.3939 -3.74972 4.3053
  endloop
 endfacet
 facet normal 0.194944 -0.980048 0.0387767
  outer loop
   vertex 11.7196 -3.46429 4.85443
   vertex 10.3939 -3.74972 4.3053
   vertex 12.6852 -3.46429 7.76747e-16
  endloop
 endfacet
 facet normal 0.194943 -0.980048 0.0387767
  outer loop
   vertex 12.6852 -3.46429 7.76747e-16
   vertex 10.3939 -3.74972 4.3053
   vertex 11.2503 -3.74972 6.88881e-16
  endloop
 endfacet
 facet normal 0.194943 -0.980048 -0.0387767
  outer loop
   vertex 12.6852 -3.46429 7.76747e-16
   vertex 11.2503 -3.74972 6.88881e-16
   vertex 11.7196 -3.46429 -4.85443
  endloop
 endfacet
 facet normal 0.194944 -0.980048 -0.0387767
  outer loop
   vertex 11.7196 -3.46429 -4.85443
   vertex 11.2503 -3.74972 6.88881e-16
   vertex 10.3939 -3.74972 -4.3053
  endloop
 endfacet
 facet normal 0.165265 -0.980048 -0.110427
  outer loop
   vertex 11.7196 -3.46429 -4.85443
   vertex 10.3939 -3.74972 -4.3053
   vertex 8.96982 -3.46429 -8.96982
  endloop
 endfacet
 facet normal 0.165265 -0.980048 -0.110427
  outer loop
   vertex 8.96982 -3.46429 -8.96982
   vertex 10.3939 -3.74972 -4.3053
   vertex 7.95515 -3.74972 -7.95515
  endloop
 endfacet
 facet normal 0.110427 -0.980048 -0.165265
  outer loop
   vertex 8.96982 -3.46429 -8.96982
   vertex 7.95515 -3.74972 -7.95515
   vertex 4.85443 -3.46429 -11.7196
  endloop
 endfacet
 facet normal 0.110427 -0.980048 -0.165265
  outer loop
   vertex 4.85443 -3.46429 -11.7196
   vertex 7.95515 -3.74972 -7.95515
   vertex 4.3053 -3.74972 -10.3939
  endloop
 endfacet
 facet normal 0.0387767 -0.980048 -0.194944
  outer loop
   vertex 4.85443 -3.46429 -11.7196
   vertex 4.3053 -3.74972 -10.3939
   vertex 0 -3.46429 -12.6852
  endloop
 endfacet
 facet normal 0.0387767 -0.980048 -0.194943
  outer loop
   vertex 0 -3.46429 -12.6852
   vertex 4.3053 -3.74972 -10.3939
   vertex 0 -3.74972 -11.2503
  endloop
 endfacet
 facet normal -0.109841 -0.826438 -0.552209
  outer loop
   vertex 0 -2.65145 -13.9017
   vertex 0 -3.46429 -12.6852
   vertex -5.31996 -2.65145 -12.8435
  endloop
 endfacet
 facet normal -0.109841 -0.826439 -0.552208
  outer loop
   vertex -5.31996 -2.65145 -12.8435
   vertex 0 -3.46429 -12.6852
   vertex -4.85443 -3.46429 -11.7196
  endloop
 endfacet
 facet normal -0.312801 -0.826439 -0.46814
  outer loop
   vertex -5.31996 -2.65145 -12.8435
   vertex -4.85443 -3.46429 -11.7196
   vertex -9.83001 -2.65145 -9.83001
  endloop
 endfacet
 facet normal -0.312801 -0.826438 -0.46814
  outer loop
   vertex -9.83001 -2.65145 -9.83001
   vertex -4.85443 -3.46429 -11.7196
   vertex -8.96982 -3.46429 -8.96982
  endloop
 endfacet
 facet normal -0.46814 -0.826438 -0.312801
  outer loop
   vertex -9.83001 -2.65145 -9.83001
   vertex -8.96982 -3.46429 -8.96982
   vertex -12.8435 -2.65145 -5.31996
  endloop
 endfacet
 facet normal -0.46814 -0.826439 -0.312801
  outer loop
   vertex -12.8435 -2.65145 -5.31996
   vertex -8.96982 -3.46429 -8.96982
   vertex -11.7196 -3.46429 -4.85443
  endloop
 endfacet
 facet normal -0.552208 -0.826439 -0.109841
  outer loop
   vertex -12.8435 -2.65145 -5.31996
   vertex -11.7196 -3.46429 -4.85443
   vertex -13.9017 -2.65145 8.51236e-16
  endloop
 endfacet
 facet normal -0.552209 -0.826438 -0.109841
  outer loop
   vertex -13.9017 -2.65145 8.51236e-16
   vertex -11.7196 -3.46429 -4.85443
   vertex -12.6852 -3.46429 7.76747e-16
  endloop
 endfacet
 facet normal -0.552209 -0.826438 0.109841
  outer loop
   vertex -13.9017 -2.65145 8.51236e-16
   vertex -12.6852 -3.46429 7.76747e-16
   vertex -12.8435 -2.65145 5.31996
  endloop
 endfacet
 facet normal -0.552208 -0.826439 0.109841
  outer loop
   vertex -12.8435 -2.65145 5.31996
   vertex -12.6852 -3.46429 7.76747e-16
   vertex -11.7196 -3.46429 4.85443
  endloop
 endfacet
 facet normal -0.46814 -0.826439 0.312801
  outer loop
   vertex -12.8435 -2.65145 5.31996
   vertex -11.7196 -3.46429 4.85443
   vertex -9.83001 -2.65145 9.83001
  endloop
 endfacet
 facet normal -0.46814 -0.826438 0.312801
  outer loop
   vertex -9.83001 -2.65145 9.83001
   vertex -11.7196 -3.46429 4.85443
   vertex -8.96982 -3.46429 8.96982
  endloop
 endfacet
 facet normal -0.312801 -0.826438 0.46814
  outer loop
   vertex -9.83001 -2.65145 9.83001
   vertex -8.96982 -3.46429 8.96982
   vertex -5.31996 -2.65145 12.8435
  endloop
 endfacet
 facet normal -0.312801 -0.826439 0.46814
  outer loop
   vertex -5.31996 -2.65145 12.8435
   vertex -8.96982 -3.46429 8.96982
   vertex -4.85443 -3.46429 11.7196
  endloop
 endfacet
 facet normal -0.109841 -0.826439 0.552208
  outer loop
   vertex -5.31996 -2.65145 12.8435
   vertex -4.85443 -3.46429 11.7196
   vertex 0 -2.65145 13.9017
  endloop
 endfacet
 facet normal -0.109841 -0.826438 0.552209
  outer loop
   vertex 0 -2.65145 13.9017
   vertex -4.85443 -3.46429 11.7196
   vertex 0 -3.46429 12.6852
  endloop
 endfacet
 facet normal 0.109841 -0.826438 0.552209
  outer loop
   vertex 0 -2.65145 13.9017
   vertex 0 -3.46429 12.6852
   vertex 5.31996 -2.65145 12.8435
  endloop
 endfacet
 facet normal 0.109841 -0.826439 0.552208
  outer loop
   vertex 5.31996 -2.65145 12.8435
   vertex 0 -3.46429 12.6852
   vertex 4.85443 -3.46429 11.7196
  endloop
 endfacet
 facet normal 0.312801 -0.826439 0.46814
  outer loop
   vertex 5.31996 -2.65145 12.8435
   vertex 4.85443 -3.46429 11.7196
   vertex 9.83001 -2.65145 9.83001
  endloop
 endfacet
 facet normal 0.312801 -0.826438 0.46814
  outer loop
   vertex 9.83001 -2.65145 9.83001
   vertex 4.85443 -3.46429 11.7196
   vertex 8.96982 -3.46429 8.96982
  endloop
 endfacet
 facet normal 0.46814 -0.826438 0.312801
  outer loop
   vertex 9.83001 -2.65145 9.83001
   vertex 8.96982 -3.46429 8.96982
   vertex 12.8435 -2.65145 5.31996
  endloop
 endfacet
 facet normal 0.46814 -0.826439 0.312801
  outer loop
   vertex 12.8435 -2.65145 5.31996
   vertex 8.96982 -3.46429 8.96982
   vertex 11.7196 -3.46429 4.85443
  endloop
 endfacet
 facet normal 0.552208 -0.826439 0.109841
  outer loop
   vertex 12.8435 -2.65145 5.31996
   vertex 11.7196 -3.46429 4.85443
   vertex 13.9017 -2.65145 8.51236e-16
  endloop
 endfacet
 facet normal 0.552209 -0.826438 0.109841
  outer loop
   vertex 13.9017 -2.65145 8.51236e-16
   vertex 11.7196 -3.46429 4.85443
   vertex 12.6852 -3.46429 7.76747e-16
  endloop
 endfacet
 facet normal 0.552209 -0.826438 -0.109841
  outer loop
   vertex 13.9017 -2.65145 8.51236e-16
   vertex 12.6852 -3.46429 7.76747e-16
   vertex 12.8435 -2.65145 -5.31996
  endloop
 endfacet
 facet normal 0.552208 -0.826439 -0.109841
  outer loop
   vertex 12.8435 -2.65145 -5.31996
   vertex 12.6852 -3.46429 7.76747e-16
   vertex 11.7196 -3.46429 -4.85443
  endloop
 endfacet
 facet normal 0.46814 -0.826439 -0.312801
  outer loop
   vertex 12.8435 -2.65145 -5.31996
   vertex 11.7196 -3.46429 -4.85443
   vertex 9.83001 -2.65145 -9.83001
  endloop
 endfacet
 facet normal 0.46814 -0.826438 -0.312801
  outer loop
   vertex 9.83001 -2.65145 -9.83001
   vertex 11.7196 -3.46429 -4.85443
   vertex 8.96982 -3.46429 -8.96982
  endloop
 endfacet
 facet normal 0.312801 -0.826438 -0.46814
  outer loop
   vertex 9.83001 -2.65145 -9.83001
   vertex 8.96982 -3.46429 -8.96982
   vertex 5.31996 -2.65145 -12.8435
  endloop
 endfacet
 facet normal 0.312801 -0.826439 -0.46814
  outer loop
   vertex 5.31996 -2.65145 -12.8435
   vertex 8.96982 -3.46429 -8.96982
   vertex 4.85443 -3.46429 -11.7196
  endloop
 endfacet
 facet normal 0.109841 -0.826439 -0.552208
  outer loop
   vertex 5.31996 -2.65145 -12.8435
   vertex 4.85443 -3.46429 -11.7196
   vertex 0 -2.65145 -13.9017
  endloop
 endfacet
 facet normal 0.109841 -0.826438 -0.552209
  outer loop
   vertex 0 -2.65145 -13.9017
   vertex 4.85443 -3.46429 -11.7196
   vertex 0 -3.46429 -12.6852
  endloop
 endfacet
 facet normal -0.163173 -0.548125 -0.820326
  outer loop
   vertex 0 -1.43496 -14.7146
   vertex 0 -2.65145 -13.9017
   vertex -5.63102 -1.43496 -13.5945
  endloop
 endfacet
 facet normal -0.163173 -0.548124 -0.820326
  outer loop
   vertex -5.63102 -1.43496 -13.5945
   vertex 0 -2.65145 -13.9017
   vertex -5.31996 -2.65145 -12.8435
  endloop
 endfacet
 facet normal -0.464677 -0.548124 -0.695439
  outer loop
   vertex -5.63102 -1.43496 -13.5945
   vertex -5.31996 -2.65145 -12.8435
   vertex -10.4048 -1.43496 -10.4048
  endloop
 endfacet
 facet normal -0.464677 -0.548124 -0.695439
  outer loop
   vertex -10.4048 -1.43496 -10.4048
   vertex -5.31996 -2.65145 -12.8435
   vertex -9.83001 -2.65145 -9.83001
  endloop
 endfacet
 facet normal -0.695439 -0.548124 -0.464677
  outer loop
   vertex -10.4048 -1.43496 -10.4048
   vertex -9.83001 -2.65145 -9.83001
   vertex -13.5945 -1.43496 -5.63102
  endloop
 endfacet
 facet normal -0.695439 -0.548124 -0.464677
  outer loop
   vertex -13.5945 -1.43496 -5.63102
   vertex -9.83001 -2.65145 -9.83001
   vertex -12.8435 -2.65145 -5.31996
  endloop
 endfacet
 facet normal -0.820326 -0.548124 -0.163173
  outer loop
   vertex -13.5945 -1.43496 -5.63102
   vertex -12.8435 -2.65145 -5.31996
   vertex -14.7146 -1.43496 9.01008e-16
  endloop
 endfacet
 facet normal -0.820326 -0.548125 -0.163173
  outer loop
   vertex -14.7146 -1.43496 9.01008e-16
   vertex -12.8435 -2.65145 -5.31996
   vertex -13.9017 -2.65145 8.51236e-16
  endloop
 endfacet
 facet normal -0.820326 -0.548125 0.163173
  outer loop
   vertex -14.7146 -1.43496 9.01008e-16
   vertex -13.9017 -2.65145 8.51236e-16
   vertex -13.5945 -1.43496 5.63102
  endloop
 endfacet
 facet normal -0.820326 -0.548124 0.163173
  outer loop
   vertex -13.5945 -1.43496 5.63102
   vertex -13.9017 -2.65145 8.51236e-16
   vertex -12.8435 -2.65145 5.31996
  endloop
 endfacet
 facet normal -0.695439 -0.548124 0.464677
  outer loop
   vertex -13.5945 -1.43496 5.63102
   vertex -12.8435 -2.65145 5.31996
   vertex -10.4048 -1.43496 10.4048
  endloop
 endfacet
 facet normal -0.695439 -0.548124 0.464677
  outer loop
   vertex -10.4048 -1.43496 10.4048
   vertex -12.8435 -2.65145 5.31996
   vertex -9.83001 -2.65145 9.83001
  endloop
 endfacet
 facet normal -0.464677 -0.548124 0.695439
  outer loop
   vertex -10.4048 -1.43496 10.4048
   vertex -9.83001 -2.65145 9.83001
   vertex -5.63102 -1.43496 13.5945
  endloop
 endfacet
 facet normal -0.464677 -0.548124 0.695439
  outer loop
   vertex -5.63102 -1.43496 13.5945
   vertex -9.83001 -2.65145 9.83001
   vertex -5.31996 -2.65145 12.8435
  endloop
 endfacet
 facet normal -0.163173 -0.548124 0.820326
  outer loop
   vertex -5.63102 -1.43496 13.5945
   vertex -5.31996 -2.65145 12.8435
   vertex 0 -1.43496 14.7146
  endloop
 endfacet
 facet normal -0.163173 -0.548125 0.820326
  outer loop
   vertex 0 -1.43496 14.7146
   vertex -5.31996 -2.65145 12.8435
   vertex 0 -2.65145 13.9017
  endloop
 endfacet
 facet normal 0.163173 -0.548125 0.820326
  outer loop
   vertex 0 -1.43496 14.7146
   vertex 0 -2.65145 13.9017
   vertex 5.63102 -1.43496 13.5945
  endloop
 endfacet
 facet normal 0.163173 -0.548124 0.820326
  outer loop
   vertex 5.63102 -1.43496 13.5945
   vertex 0 -2.65145 13.9017
   vertex 5.31996 -2.65145 12.8435
  endloop
 endfacet
 facet normal 0.464677 -0.548124 0.695439
  outer loop
   vertex 5.63102 -1.43496 13.5945
   vertex 5.31996 -2.65145 12.8435
   vertex 10.4048 -1.43496 10.4048
  endloop
 endfacet
 facet normal 0.464677 -0.548124 0.695439
  outer loop
   vertex 10.4048 -1.43496 10.4048
   vertex 5.31996 -2.65145 12.8435
   vertex 9.83001 -2.65145 9.83001
  endloop
 endfacet
 facet normal 0.695439 -0.548124 0.464677
  outer loop
   vertex 10.4048 -1.43496 10.4048
   vertex 9.83001 -2.65145 9.83001
   vertex 13.5945 -1.43496 5.63102
  endloop
 endfacet
 facet normal 0.695439 -0.548124 0.464677
  outer loop
   vertex 13.5945 -1.43496 5.63102
   vertex 9.83001 -2.65145 9.83001
   vertex 12.8435 -2.65145 5.31996
  endloop
 endfacet
 facet normal 0.820326 -0.548124 0.163173
  outer loop
   vertex 13.5945 -1.43496 5.63102
   vertex 12.8435 -2.65145 5.31996
   vertex 14.7146 -1.43496 9.01008e-16
  endloop
 endfacet
 facet normal 0.820326 -0.548125 0.163173
  outer loop
   vertex 14.7146 -1.43496 9.01008e-16
   vertex 12.8435 -2.65145 5.31996
   vertex 13.9017 -2.65145 8.51236e-16
  endloop
 endfacet
 facet normal 0.820326 -0.548125 -0.163173
  outer loop
   vertex 14.7146 -1.43496 9.01008e-16
   vertex 13.9017 -2.65145 8.51236e-16
   vertex 13.5945 -1.43496 -5.63102
  endloop
 endfacet
 facet normal 0.820326 -0.548124 -0.163173
  outer loop
   vertex 13.5945 -1.43496 -5.63102
   vertex 13.9017 -2.65145 8.51236e-16
   vertex 12.8435 -2.65145 -5.31996
  endloop
 endfacet
 facet normal 0.695439 -0.548124 -0.464677
  outer loop
   vertex 13.5945 -1.43496 -5.63102
   vertex 12.8435 -2.65145 -5.31996
   vertex 10.4048 -1.43496 -10.4048
  endloop
 endfacet
 facet normal 0.695439 -0.548124 -0.464677
  outer loop
   vertex 10.4048 -1.43496 -10.4048
   vertex 12.8435 -2.65145 -5.31996
   vertex 9.83001 -2.65145 -9.83001
  endloop
 endfacet
 facet normal 0.464677 -0.548124 -0.695439
  outer loop
   vertex 10.4048 -1.43496 -10.4048
   vertex 9.83001 -2.65145 -9.83001
   vertex 5.63102 -1.43496 -13.5945
  endloop
 endfacet
 facet normal 0.464677 -0.548124 -0.695439
  outer loop
   vertex 5.63102 -1.43496 -13.5945
   vertex 9.83001 -2.65145 -9.83001
   vertex 5.31996 -2.65145 -12.8435
  endloop
 endfacet
 facet normal 0.163173 -0.548124 -0.820326
  outer loop
   vertex 5.63102 -1.43496 -13.5945
   vertex 5.31996 -2.65145 -12.8435
   vertex 0 -1.43496 -14.7146
  endloop
 endfacet
 facet normal 0.163173 -0.548125 -0.820326
  outer loop
   vertex 0 -1.43496 -14.7146
   vertex 5.31996 -2.65145 -12.8435
   vertex 0 -2.65145 -13.9017
  endloop
 endfacet
 facet normal -0.19148 -0.19148 -0.962637
  outer loop
   vertex 0 0 -15
   vertex 0 -1.43496 -14.7146
   vertex -5.74025 0 -13.8582
  endloop
 endfacet
 facet normal -0.19148 -0.191481 -0.962637
  outer loop
   vertex -5.74025 0 -13.8582
   vertex 0 -1.43496 -14.7146
   vertex -5.63102 -1.43496 -13.5945
  endloop
 endfacet
 facet normal -0.54529 -0.191481 -0.816084
  outer loop
   vertex -5.74025 0 -13.8582
   vertex -5.63102 -1.43496 -13.5945
   vertex -10.6066 0 -10.6066
  endloop
 endfacet
 facet normal -0.54529 -0.191481 -0.816084
  outer loop
   vertex -10.6066 0 -10.6066
   vertex -5.63102 -1.43496 -13.5945
   vertex -10.4048 -1.43496 -10.4048
  endloop
 endfacet
 facet normal -0.816084 -0.191481 -0.54529
  outer loop
   vertex -10.6066 0 -10.6066
   vertex -10.4048 -1.43496 -10.4048
   vertex -13.8582 0 -5.74025
  endloop
 endfacet
 facet normal -0.816084 -0.191481 -0.54529
  outer loop
   vertex -13.8582 0 -5.74025
   vertex -10.4048 -1.43496 -10.4048
   vertex -13.5945 -1.43496 -5.63102
  endloop
 endfacet
 facet normal -0.962637 -0.191481 -0.19148
  outer loop
   vertex -13.8582 0 -5.74025
   vertex -13.5945 -1.43496 -5.63102
   vertex -15 0 9.18485e-16
  endloop
 endfacet
 facet normal -0.962637 -0.19148 -0.19148
  outer loop
   vertex -15 0 9.18485e-16
   vertex -13.5945 -1.43496 -5.63102
   vertex -14.7146 -1.43496 9.01008e-16
  endloop
 endfacet
 facet normal -0.962637 -0.19148 0.19148
  outer loop
   vertex -15 0 9.18485e-16
   vertex -14.7146 -1.43496 9.01008e-16
   vertex -13.8582 0 5.74025
  endloop
 endfacet
 facet normal -0.962637 -0.191481 0.19148
  outer loop
   vertex -13.8582 0 5.74025
   vertex -14.7146 -1.43496 9.01008e-16
   vertex -13.5945 -1.43496 5.63102
  endloop
 endfacet
 facet normal -0.816084 -0.191481 0.54529
  outer loop
   vertex -13.8582 0 5.74025
   vertex -13.5945 -1.43496 5.63102
   vertex -10.6066 0 10.6066
  endloop
 endfacet
 facet normal -0.816084 -0.191481 0.54529
  outer loop
   vertex -10.6066 0 10.6066
   vertex -13.5945 -1.43496 5.63102
   vertex -10.4048 -1.43496 10.4048
  endloop
 endfacet
 facet normal -0.54529 -0.191481 0.816084
  outer loop
   vertex -10.6066 0 10.6066
   vertex -10.4048 -1.43496 10.4048
   vertex -5.74025 0 13.8582
  endloop
 endfacet
 facet normal -0.54529 -0.191481 0.816084
  outer loop
   vertex -5.74025 0 13.8582
   vertex -10.4048 -1.43496 10.4048
   vertex -5.63102 -1.43496 13.5945
  endloop
 endfacet
 facet normal -0.19148 -0.191481 0.962637
  outer loop
   vertex -5.74025 0 13.8582
   vertex -5.63102 -1.43496 13.5945
   vertex 0 0 15
  endloop
 endfacet
 facet normal -0.19148 -0.19148 0.962637
  outer loop
   vertex 0 0 15
   vertex -5.63102 -1.43496 13.5945
   vertex 0 -1.43496 14.7146
  endloop
 endfacet
 facet normal 0.19148 -0.19148 0.962637
  outer loop
   vertex 0 0 15
   vertex 0 -1.43496 14.7146
   vertex 5.74025 0 13.8582
  endloop
 endfacet
 facet normal 0.19148 -0.191481 0.962637
  outer loop
   vertex 5.74025 0 13.8582
   vertex 0 -1.43496 14.7146
   vertex 5.63102 -1.43496 13.5945
  endloop
 endfacet
 facet normal 0.54529 -0.191481 0.816084
  outer loop
   vertex 5.74025 0 13.8582
   vertex 5.63102 -1.43496 13.5945
   vertex 10.6066 0 10.6066
  endloop
 endfacet
 facet normal 0.54529 -0.191481 0.816084
  outer loop
   vertex 10.6066 0 10.6066
   vertex 5.63102 -1.43496 13.5945
   vertex 10.4048 -1.43496 10.4048
  endloop
 endfacet
 facet normal 0.816084 -0.191481 0.54529
  outer loop
   vertex 10.6066 0 10.6066
   vertex 10.4048 -1.43496 10.4048
   vertex 13.8582 0 5.74025
  endloop
 endfacet
 facet normal 0.816084 -0.191481 0.54529
  outer loop
   vertex 13.8582 0 5.74025
   vertex 10.4048 -1.43496 10.4048
   vertex 13.5945 -1.43496 5.63102
  endloop
 endfacet
 facet normal 0.962637 -0.191481 0.19148
  outer loop
   vertex 13.8582 0 5.74025
   vertex 13.5945 -1.43496 5.63102
   vertex 15 0 9.18485e-16
  endloop
 endfacet
 facet normal 0.962637 -0.19148 0.19148
  outer loop
   vertex 15 0 9.18485e-16
   vertex 13.5945 -1.43496 5.63102
   vertex 14.7146 -1.43496 9.01008e-16
  endloop
 endfacet
 facet normal 0.962637 -0.19148 -0.19148
  outer loop
   vertex 15 0 9.18485e-16
   vertex 14.7146 -1.43496 9.01008e-16
   vertex 13.8582 0 -5.74025
  endloop
 endfacet
 facet normal 0.962637 -0.191481 -0.19148
  outer loop
   vertex 13.8582 0 -5.74025
   vertex 14.7146 -1.43496 9.01008e-16
   vertex 13.5945 -1.43496 -5.63102
  endloop
 endfacet
 facet normal 0.816084 -0.191481 -0.54529
  outer loop
   vertex 13.8582 0 -5.74025
   vertex 13.5945 -1.43496 -5.63102
   vertex 10.6066 0 -10.6066
  endloop
 endfacet
 facet normal 0.816084 -0.191481 -0.54529
  outer loop
   vertex 10.6066 0 -10.6066
   vertex 13.5945 -1.43496 -5.63102
   vertex 10.4048 -1.43496 -10.4048
  endloop
 endfacet
 facet normal 0.54529 -0.191481 -0.816084
  outer loop
   vertex 10.6066 0 -10.6066
   vertex 10.4048 -1.43496 -10.4048
   vertex 5.74025 0 -13.8582
  endloop
 endfacet
 facet normal 0.54529 -0.191481 -0.816084
  outer loop
   vertex 5.74025 0 -13.8582
   vertex 10.4048 -1.43496 -10.4048
   vertex 5.63102 -1.43496 -13.5945
  endloop
 endfacet
 facet normal 0.19148 -0.191481 -0.962637
  outer loop
   vertex 5.74025 0 -13.8582
   vertex 5.63102 -1.43496 -13.5945
   vertex 0 0 -15
  endloop
 endfacet
 facet normal 0.19148 -0.19148 -0.962637
  outer loop
   vertex 0 0 -15
   vertex 5.63102 -1.43496 -13.5945
   vertex 0 -1.43496 -14.7146
  endloop
 endfacet
 facet normal -0.19148 0.19148 -0.962637
  outer loop
   vertex 0 1.43496 -14.7146
   vertex 0 0 -15
   vertex -5.63102 1.43496 -13.5945
  endloop
 endfacet
 facet normal -0.19148 0.191481 -0.962637
  outer loop
   vertex -5.63102 1.43496 -13.5945
   vertex 0 0 -15
   vertex -5.74025 0 -13.8582
  endloop
 endfacet
 facet normal -0.54529 0.191481 -0.816084
  outer loop
   vertex -5.63102 1.43496 -13.5945
   vertex -5.74025 0 -13.8582
   vertex -10.4048 1.43496 -10.4048
  endloop
 endfacet
 facet normal -0.54529 0.191481 -0.816084
  outer loop
   vertex -10.4048 1.43496 -10.4048
   vertex -5.74025 0 -13.8582
   vertex -10.6066 0 -10.6066
  endloop
 endfacet
 facet normal -0.816084 0.191481 -0.54529
  outer loop
   vertex -10.4048 1.43496 -10.4048
   vertex -10.6066 0 -10.6066
   vertex -13.5945 1.43496 -5.63102
  endloop
 endfacet
 facet normal -0.816084 0.191481 -0.54529
  outer loop
   vertex -13.5945 1.43496 -5.63102
   vertex -10.6066 0 -10.6066
   vertex -13.8582 0 -5.74025
  endloop
 endfacet
 facet normal -0.962637 0.191481 -0.19148
  outer loop
   vertex -13.5945 1.43496 -5.63102
   vertex -13.8582 0 -5.74025
   vertex -14.7146 1.43496 9.01008e-16
  endloop
 endfacet
 facet normal -0.962637 0.19148 -0.19148
  outer loop
   vertex -14.7146 1.43496 9.01008e-16
   vertex -13.8582 0 -5.74025
   vertex -15 0 9.18485e-16
  endloop
 endfacet
 facet normal -0.962637 0.19148 0.19148
  outer loop
   vertex -14.7146 1.43496 9.01008e-16
   vertex -15 0 9.18485e-16
   vertex -13.5945 1.43496 5.63102
  endloop
 endfacet
 facet normal -0.962637 0.191481 0.19148
  outer loop
   vertex -13.5945 1.43496 5.63102
   vertex -15 0 9.18485e-16
   vertex -13.8582 0 5.74025
  endloop
 endfacet
 facet normal -0.816084 0.191481 0.54529
  outer loop
   vertex -13.5945 1.43496 5.63102
   vertex -13.8582 0 5.74025
   vertex -10.4048 1.43496 10.4048
  endloop
 endfacet
 facet normal -0.816084 0.191481 0.54529
  outer loop
   vertex -10.4048 1.43496 10.4048
   vertex -13.8582 0 5.74025
   vertex -10.6066 0 10.6066
  endloop
 endfacet
 facet normal -0.54529 0.191481 0.816084
  outer loop
   vertex -10.4048 1.43496 10.4048
   vertex -10.6066 0 10.6066
   vertex -5.63102 1.43496 13.5945
  endloop
 endfacet
 facet normal -0.54529 0.191481 0.816084
  outer loop
   vertex -5.63102 1.43496 13.5945
   vertex -10.6066 0 10.6066
   vertex -5.74025 0 13.8582
  endloop
 endfacet
 facet normal -0.19148 0.191481 0.962637
  outer loop
   vertex -5.63102 1.43496 13.5945
   vertex -5.74025 0 13.8582
   vertex 0 1.43496 14.7146
  endloop
 endfacet
 facet normal -0.19148 0.19148 0.962637
  outer loop
   vertex 0 1.43496 14.7146
   vertex -5.74025 0 13.8582
   vertex 0 0 15
  endloop
 endfacet
 facet normal 0.19148 0.19148 0.962637
  outer loop
   vertex 0 1.43496 14.7146
   vertex 0 0 15
   vertex 5.63102 1.43496 13.5945
  endloop
 endfacet
 facet normal 0.19148 0.191481 0.962637
  outer loop
   vertex 5.63102 1.43496 13.5945
   vertex 0 0 15
   vertex 5.74025 0 13.8582
  endloop
 endfacet
 facet normal 0.54529 0.191481 0.816084
  outer loop
   vertex 5.63102 1.43496 13.5945
   vertex 5.74025 0 13.8582
   vertex 10.4048 1.43496 10.4048
  endloop
 endfacet
 facet normal 0.54529 0.191481 0.816084
  outer loop
   vertex 10.4048 1.43496 10.4048
   vertex 5.74025 0 13.8582
   vertex 10.6066 0 10.6066
  endloop
 endfacet
 facet normal 0.816084 0.191481 0.54529
  outer loop
   vertex 10.4048 1.43496 10.4048
   vertex 10.6066 0 10.6066
   vertex 13.5945 1.43496 5.63102
  endloop
 endfacet
 facet normal 0.816084 0.191481 0.54529
  outer loop
   vertex 13.5945 1.43496 5.63102
   vertex 10.6066 0 10.6066
   vertex 13.8582 0 5.74025
  endloop
 endfacet
 facet normal 0.962637 0.191481 0.19148
  outer loop
   vertex 13.5945 1.43496 5.63102
   vertex 13.8582 0 5.74025
   vertex 14.7146 1.43496 9.01008e-16
  endloop
 endfacet
 facet normal 0.962637 0.19148 0.19148
  outer loop
   vertex 14.7146 1.43496 9.01008e-16
   vertex 13.8582 0 5.74025
   vertex 15 0 9.18485e-16
  endloop
 endfacet
 facet normal 0.962637 0.19148 -0.19148
  outer loop
   vertex 14.7146 1.43496 9.01008e-16
   vertex 15 0 9.18485e-16
   vertex 13.5945 1.43496 -5.63102
  endloop
 endfacet
 facet normal 0.962637 0.191481 -0.19148
  outer loop
   vertex 13.5945 1.43496 -5.63102
   vertex 15 0 9.18485e-16
   vertex 13.8582 0 -5.74025
  endloop
 endfacet
 facet normal 0.816084 0.191481 -0.54529
  outer loop
   vertex 13.5945 1.43496 -5.63102
   vertex 13.8582 0 -5.74025
   vertex 10.4048 1.43496 -10.4048
  endloop
 endfacet
 facet normal 0.816084 0.191481 -0.54529
  outer loop
   vertex 10.4048 1.43496 -10.4048
   vertex 13.8582 0 -5.74025
   vertex 10.6066 0 -10.6066
  endloop
 endfacet
 facet normal 0.54529 0.191481 -0.816084
  outer loop
   vertex 10.4048 1.43496 -10.4048
   vertex 10.6066 0 -10.6066
   vertex 5.63102 1.43496 -13.5945
  endloop
 endfacet
 facet normal 0.54529 0.191481 -0.816084
  outer loop
   vertex 5.63102 1.43496 -13.5945
   vertex 10.6066 0 -10.6066
   vertex 5.74025 0 -13.8582
  endloop
 endfacet
 facet normal 0.19148 0.191481 -0.962637
  outer loop
   vertex 5.63102 1.43496 -13.5945
   vertex 5.74025 0 -13.8582
   vertex 0 1.43496 -14.7146
  endloop
 endfacet
 facet normal 0.19148 0.19148 -0.962637
  outer loop
   vertex 0 1.43496 -14.7146
   vertex 5.74025 0 -13.8582
   vertex 0 0 -15
  endloop
 endfacet
 facet normal -0.163173 0.548125 -0.820326
  outer loop
   vertex 0 2.65145 -13.9017
   vertex 0 1.43496 -14.7146
   vertex -5.31996 2.65145 -12.8435
  endloop
 endfacet
 facet normal -0.163173 0.548124 -0.820326
  outer loop
   vertex -5.31996 2.65145 -12.8435
   vertex 0 1.43496 -14.7146
   vertex -5.63102 1.43496 -13.5945
  endloop
 endfacet
 facet normal -0.464677 0.548124 -0.695439
  outer loop
   vertex -5.31996 2.65145 -12.8435
   vertex -5.63102 1.43496 -13.5945
   vertex -9.83001 2.65145 -9.83001
  endloop
 endfacet
 facet normal -0.464677 0.548124 -0.695439
  outer loop
   vertex -9.83001 2.65145 -9.83001
   vertex -5.63102 1.43496 -13.5945
   vertex -10.4048 1.43496 -10.4048
  endloop
 endfacet
 facet normal -0.695439 0.548124 -0.464677
  outer loop
   vertex -9.83001 2.65145 -9.83001
   vertex -10.4048 1.43496 -10.4048
   vertex -12.8435 2.65145 -5.31996
  endloop
 endfacet
 facet normal -0.695439 0.548124 -0.464677
  outer loop
   vertex -12.8435 2.65145 -5.31996
   vertex -10.4048 1.43496 -10.4048
   vertex -13.5945 1.43496 -5.63102
  endloop
 endfacet
 facet normal -0.820326 0.548124 -0.163173
  outer loop
   vertex -12.8435 2.65145 -5.31996
   vertex -13.5945 1.43496 -5.63102
   vertex -13.9017 2.65145 8.51236e-16
  endloop
 endfacet
 facet normal -0.820326 0.548125 -0.163173
  outer loop
   vertex -13.9017 2.65145 8.51236e-16
   vertex -13.5945 1.43496 -5.63102
   vertex -14.7146 1.43496 9.01008e-16
  endloop
 endfacet
 facet normal -0.820326 0.548125 0.163173
  outer loop
   vertex -13.9017 2.65145 8.51236e-16
   vertex -14.7146 1.43496 9.01008e-16
   vertex -12.8435 2.65145 5.31996
  endloop
 endfacet
 facet normal -0.820326 0.548124 0.163173
  outer loop
   vertex -12.8435 2.65145 5.31996
   vertex -14.7146 1.43496 9.01008e-16
   vertex -13.5945 1.43496 5.63102
  endloop
 endfacet
 facet normal -0.695439 0.548124 0.464677
  outer loop
   vertex -12.8435 2.65145 5.31996
   vertex -13.5945 1.43496 5.63102
   vertex -9.83001 2.65145 9.83001
  endloop
 endfacet
 facet normal -0.695439 0.548124 0.464677
  outer loop
   vertex -9.83001 2.65145 9.83001
   vertex -13.5945 1.43496 5.63102
   vertex -10.4048 1.43496 10.4048
  endloop
 endfacet
 facet normal -0.464677 0.548124 0.695439
  outer loop
   vertex -9.83001 2.65145 9.83001
   vertex -10.4048 1.43496 10.4048
   vertex -5.31996 2.65145 12.8435
  endloop
 endfacet
 facet normal -0.464677 0.548124 0.695439
  outer loop
   vertex -5.31996 2.65145 12.8435
   vertex -10.4048 1.43496 10.4048
   vertex -5.63102 1.43496 13.5945
  endloop
 endfacet
 facet normal -0.163173 0.548124 0.820326
  outer loop
   vertex -5.31996 2.65145 12.8435
   vertex -5.63102 1.43496 13.5945
   vertex 0 2.65145 13.9017
  endloop
 endfacet
 facet normal -0.163173 0.548125 0.820326
  outer loop
   vertex 0 2.65145 13.9017
   vertex -5.63102 1.43496 13.5945
   vertex 0 1.43496 14.7146
  endloop
 endfacet
 facet normal 0.163173 0.548125 0.820326
  outer loop
   vertex 0 2.65145 13.9017
   vertex 0 1.43496 14.7146
   vertex 5.31996 2.65145 12.8435
  endloop
 endfacet
 facet normal 0.163173 0.548124 0.820326
  outer loop
   vertex 5.31996 2.65145 12.8435
   vertex 0 1.43496 14.7146
   vertex 5.63102 1.43496 13.5945
  endloop
 endfacet
 facet normal 0.464677 0.548124 0.695439
  outer loop
   vertex 5.31996 2.65145 12.8435
   vertex 5.63102 1.43496 13.5945
   vertex 9.83001 2.65145 9.83001
  endloop
 endfacet
 facet normal 0.464677 0.548124 0.695439
  outer loop
   vertex 9.83001 2.65145 9.83001
   vertex 5.63102 1.43496 13.5945
   vertex 10.4048 1.43496 10.4048
  endloop
 endfacet
 facet normal 0.695439 0.548124 0.464677
  outer loop
   vertex 9.83001 2.65145 9.83001
   vertex 10.4048 1.43496 10.4048
   vertex 12.8435 2.65145 5.31996
  endloop
 endfacet
 facet normal 0.695439 0.548124 0.464677
  outer loop
   vertex 12.8435 2.65145 5.31996
   vertex 10.4048 1.43496 10.4048
   vertex 13.5945 1.43496 5.63102
  endloop
 endfacet
 facet normal 0.820326 0.548124 0.163173
  outer loop
   vertex 12.8435 2.65145 5.31996
   vertex 13.5945 1.43496 5.63102
   vertex 13.9017 2.65145 8.51236e-16
  endloop
 endfacet
 facet normal 0.820326 0.548125 0.163173
  outer loop
   vertex 13.9017 2.65145 8.51236e-16
   vertex 13.5945 1.43496 5.63102
   vertex 14.7146 1.43496 9.01008e-16
  endloop
 endfacet
 facet normal 0.820326 0.548125 -0.163173
  outer loop
   vertex 13.9017 2.65145 8.51236e-16
   vertex 14.7146 1.43496 9.01008e-16
   vertex 12.8435 2.65145 -5.31996
  endloop
 endfacet
 facet normal 0.820326 0.548124 -0.163173
  outer loop
   vertex 12.8435 2.65145 -5.31996
   vertex 14.7146 1.43496 9.01008e-16
   vertex 13.5945 1.43496 -5.63102
  endloop
 endfacet
 facet normal 0.695439 0.548124 -0.464677
  outer loop
   vertex 12.8435 2.65145 -5.31996
   vertex 13.5945 1.43496 -5.63102
   vertex 9.83001 2.65145 -9.83001
  endloop
 endfacet
 facet normal 0.695439 0.548124 -0.464677
  outer loop
   vertex 9.83001 2.65145 -9.83001
   vertex 13.5945 1.43496 -5.63102
   vertex 10.4048 1.43496 -10.4048
  endloop
 endfacet
 facet normal 0.464677 0.548124 -0.695439
  outer loop
   vertex 9.83001 2.65145 -9.83001
   vertex 10.4048 1.43496 -10.4048
   vertex 5.31996 2.65145 -12.8435
  endloop
 endfacet
 facet normal 0.464677 0.548124 -0.695439
  outer loop
   vertex 5.31996 2.65145 -12.8435
   vertex 10.4048 1.43496 -10.4048
   vertex 5.63102 1.43496 -13.5945
  endloop
 endfacet
 facet normal 0.163173 0.548124 -0.820326
  outer loop
   vertex 5.31996 2.65145 -12.8435
   vertex 5.63102 1.43496 -13.5945
   vertex 0 2.65145 -13.9017
  endloop
 endfacet
 facet normal 0.163173 0.548125 -0.820326
  outer loop
   vertex 0 2.65145 -13.9017
   vertex 5.63102 1.43496 -13.5945
   vertex 0 1.43496 -14.7146
  endloop
 endfacet
 facet normal -0.109841 0.826438 -0.552209
  outer loop
   vertex 0 3.46429 -12.6852
   vertex 0 2.65145 -13.9017
   vertex -4.85443 3.46429 -11.7196
  endloop
 endfacet
 facet normal -0.109841 0.826439 -0.552208
  outer loop
   vertex -4.85443 3.46429 -11.7196
   vertex 0 2.65145 -13.9017
   vertex -5.31996 2.65145 -12.8435
  endloop
 endfacet
 facet normal -0.312801 0.826439 -0.46814
  outer loop
   vertex -4.85443 3.46429 -11.7196
   vertex -5.31996 2.65145 -12.8435
   vertex -8.96982 3.46429 -8.96982
  endloop
 endfacet
 facet normal -0.312801 0.826438 -0.46814
  outer loop
   vertex -8.96982 3.46429 -8.96982
   vertex -5.31996 2.65145 -12.8435
   vertex -9.83001 2.65145 -9.83001
  endloop
 endfacet
 facet normal -0.46814 0.826438 -0.312801
  outer loop
   vertex -8.96982 3.46429 -8.96982
   vertex -9.83001 2.65145 -9.83001
   vertex -11.7196 3.46429 -4.85443
  endloop
 endfacet
 facet normal -0.46814 0.826439 -0.312801
  outer loop
   vertex -11.7196 3.46429 -4.85443
   vertex -9.83001 2.65145 -9.83001
   vertex -12.8435 2.65145 -5.31996
  endloop
 endfacet
 facet normal -0.552208 0.826439 -0.109841
  outer loop
   vertex -11.7196 3.46429 -4.85443
   vertex -12.8435 2.65145 -5.31996
   vertex -12.6852 3.46429 7.76747e-16
  endloop
 endfacet
 facet normal -0.552209 0.826438 -0.109841
  outer loop
   vertex -12.6852 3.46429 7.76747e-16
   vertex -12.8435 2.65145 -5.31996
   vertex -13.9017 2.65145 8.51236e-16
  endloop
 endfacet
 facet normal -0.552209 0.826438 0.109841
  outer loop
   vertex -12.6852 3.46429 7.76747e-16
   vertex -13.9017 2.65145 8.51236e-16
   vertex -11.7196 3.46429 4.85443
  endloop
 endfacet
 facet normal -0.552208 0.826439 0.109841
  outer loop
   vertex -11.7196 3.46429 4.85443
   vertex -13.9017 2.65145 8.51236e-16
   vertex -12.8435 2.65145 5.31996
  endloop
 endfacet
 facet normal -0.46814 0.826439 0.312801
  outer loop
   vertex -11.7196 3.46429 4.85443
   vertex -12.8435 2.65145 5.31996
   vertex -8.96982 3.46429 8.96982
  endloop
 endfacet
 facet normal -0.46814 0.826438 0.312801
  outer loop
   vertex -8.96982 3.46429 8.96982
   vertex -12.8435 2.65145 5.31996
   vertex -9.83001 2.65145 9.83001
  endloop
 endfacet
 facet normal -0.312801 0.826438 0.46814
  outer loop
   vertex -8.96982 3.46429 8.96982
   vertex -9.83001 2.65145 9.83001
   vertex -4.85443 3.46429 11.7196
  endloop
 endfacet
 facet normal -0.312801 0.826439 0.46814
  outer loop
   vertex -4.85443 3.46429 11.7196
   vertex -9.83001 2.65145 9.83001
   vertex -5.31996 2.65145 12.8435
  endloop
 endfacet
 facet normal -0.109841 0.826439 0.552208
  outer loop
   vertex -4.85443 3.46429 11.7196
   vertex -5.31996 2.65145 12.8435
   vertex 0 3.46429 12.6852
  endloop
 endfacet
 facet normal -0.109841 0.826438 0.552209
  outer loop
   vertex 0 3.46429 12.6852
   vertex -5.31996 2.65145 12.8435
   vertex 0 2.65145 13.9017
  endloop
 endfacet
 facet normal 0.109841 0.826438 0.552209
  outer loop
   vertex 0 3.46429 12.6852
   vertex 0 2.65145 13.9017
   vertex 4.85443 3.46429 11.7196
  endloop
 endfacet
 facet normal 0.109841 0.826439 0.552208
  outer loop
   vertex 4.85443 3.46429 11.7196
   vertex 0 2.65145 13.9017
   vertex 5.31996 2.65145 12.8435
  endloop
 endfacet
 facet normal 0.312801 0.826439 0.46814
  outer loop
   vertex 4.85443 3.46429 11.7196
   vertex 5.31996 2.65145 12.8435
   vertex 8.96982 3.46429 8.96982
  endloop
 endfacet
 facet normal 0.312801 0.826438 0.46814
  outer loop
   vertex 8.96982 3.46429 8.96982
   vertex 5.31996 2.65145 12.8435
   vertex 9.83001 2.65145 9.83001
  endloop
 endfacet
 facet normal 0.46814 0.826438 0.312801
  outer loop
   vertex 8.96982 3.46429 8.96982
   vertex 9.83001 2.65145 9.83001
   vertex 11.7196 3.46429 4.85443
  endloop
 endfacet
 facet normal 0.46814 0.826439 0.312801
  outer loop
   vertex 11.7196 3.46429 4.85443
   vertex 9.83001 2.65145 9.83001
   vertex 12.8435 2.65145 5.31996
  endloop
 endfacet
 facet normal 0.552208 0.826439 0.109841
  outer loop
   vertex 11.7196 3.46429 4.85443
   vertex 12.8435 2.65145 5.31996
   vertex 12.6852 3.46429 7.76747e-16
  endloop
 endfacet
 facet normal 0.552209 0.826438 0.109841
  outer loop
   vertex 12.6852 3.46429 7.76747e-16
   vertex 12.8435 2.65145 5.31996
   vertex 13.9017 2.65145 8.51236e-16
  endloop
 endfacet
 facet normal 0.552209 0.826438 -0.109841
  outer loop
   vertex 12.6852 3.46429 7.76747e-16
   vertex 13.9017 2.65145 8.51236e-16
   vertex 11.7196 3.46429 -4.85443
  endloop
 endfacet
 facet normal 0.552208 0.826439 -0.109841
  outer loop
   vertex 11.7196 3.46429 -4.85443
   vertex 13.9017 2.65145 8.51236e-16
   vertex 12.8435 2.65145 -5.31996
  endloop
 endfacet
 facet normal 0.46814 0.826439 -0.312801
  outer loop
   vertex 11.7196 3.46429 -4.85443
   vertex 12.8435 2.65145 -5.31996
   vertex 8.96982 3.46429 -8.96982
  endloop
 endfacet
 facet normal 0.46814 0.826438 -0.312801
  outer loop
   vertex 8.96982 3.46429 -8.96982
   vertex 12.8435 2.65145 -5.31996
   vertex 9.83001 2.65145 -9.83001
  endloop
 endfacet
 facet normal 0.312801 0.826438 -0.46814
  outer loop
   vertex 8.96982 3.46429 -8.96982
   vertex 9.83001 2.65145 -9.83001
   vertex 4.85443 3.46429 -11.7196
  endloop
 endfacet
 facet normal 0.312801 0.826439 -0.46814
  outer loop
   vertex 4.85443 3.46429 -11.7196
   vertex 9.83001 2.65145 -9.83001
   vertex 5.31996 2.65145 -12.8435
  endloop
 endfacet
 facet normal 0.109841 0.826439 -0.552208
  outer loop
   vertex 4.85443 3.46429 -11.7196
   vertex 5.31996 2.65145 -12.8435
   vertex 0 3.46429 -12.6852
  endloop
 endfacet
 facet normal 0.109841 0.826438 -0.552209
  outer loop
   vertex 0 3.46429 -12.6852
   vertex 5.31996 2.65145 -12.8435
   vertex 0 2.65145 -13.9017
  endloop
 endfacet
 facet normal -0.0387767 0.980048 -0.194943
  outer loop
   vertex 0 3.74972 -11.2503
   vertex 0 3.46429 -12.6852
   vertex -4.3053 3.74972 -10.3939
  endloop
 endfacet
 facet normal -0.0387767 0.980048 -0.194944
  outer loop
   vertex -4.3053 3.74972 -10.3939
   vertex 0 3.46429 -12.6852
   vertex -4.85443 3.46429 -11.7196
  endloop
 endfacet
 facet normal -0.110427 0.980048 -0.165265
  outer loop
   vertex -4.3053 3.74972 -10.3939
   vertex -4.85443 3.46429 -11.7196
   vertex -7.95515 3.74972 -7.95515
  endloop
 endfacet
 facet normal -0.110427 0.980048 -0.165265
  outer loop
   vertex -7.95515 3.74972 -7.95515
   vertex -4.85443 3.46429 -11.7196
   vertex -8.96982 3.46429 -8.96982
  endloop
 endfacet
 facet normal -0.165265 0.980048 -0.110427
  outer loop
   vertex -7.95515 3.74972 -7.95515
   vertex -8.96982 3.46429 -8.96982
   vertex -10.3939 3.74972 -4.3053
  endloop
 endfacet
 facet normal -0.165265 0.980048 -0.110427
  outer loop
   vertex -10.3939 3.74972 -4.3053
   vertex -8.96982 3.46429 -8.96982
   vertex -11.7196 3.46429 -4.85443
  endloop
 endfacet
 facet normal -0.194944 0.980048 -0.0387767
  outer loop
   vertex -10.3939 3.74972 -4.3053
   vertex -11.7196 3.46429 -4.85443
   vertex -11.2503 3.74972 6.88881e-16
  endloop
 endfacet
 facet normal -0.194943 0.980048 -0.0387767
  outer loop
   vertex -11.2503 3.74972 6.88881e-16
   vertex -11.7196 3.46429 -4.85443
   vertex -12.6852 3.46429 7.76747e-16
  endloop
 endfacet
 facet normal -0.194943 0.980048 0.0387767
  outer loop
   vertex -11.2503 3.74972 6.88881e-16
   vertex -12.6852 3.46429 7.76747e-16
   vertex -10.3939 3.74972 4.3053
  endloop
 endfacet
 facet normal -0.194944 0.980048 0.0387767
  outer loop
   vertex -10.3939 3.74972 4.3053
   vertex -12.6852 3.46429 7.76747e-16
   vertex -11.7196 3.46429 4.85443
  endloop
 endfacet
 facet normal -0.165265 0.980048 0.110427
  outer loop
   vertex -10.3939 3.74972 4.3053
   vertex -11.7196 3.46429 4.85443
   vertex -7.95515 3.74972 7.95515
  endloop
 endfacet
 facet normal -0.165265 0.980048 0.110427
  outer loop
   vertex -7.95515 3.74972 7.95515
   vertex -11.7196 3.46429 4.85443
   vertex -8.96982 3.46429 8.96982
  endloop
 endfacet
 facet normal -0.110427 0.980048 0.165265
  outer loop
   vertex -7.95515 3.74972 7.95515
   vertex -8.96982 3.46429 8.96982
   vertex -4.3053 3.74972 10.3939
  endloop
 endfacet
 facet normal -0.110427 0.980048 0.165265
  outer loop
   vertex -4.3053 3.74972 10.3939
   vertex -8.96982 3.46429 8.96982
   vertex -4.85443 3.46429 11.7196
  endloop
 endfacet
 facet normal -0.0387767 0.980048 0.194944
  outer loop
   vertex -4.3053 3.74972 10.3939
   vertex -4.85443 3.46429 11.7196
   vertex 0 3.74972 11.2503
  endloop
 endfacet
 facet normal -0.0387767 0.980048 0.194943
  outer loop
   vertex 0 3.74972 11.2503
   vertex -4.85443 3.46429 11.7196
   vertex 0 3.46429 12.6852
  endloop
 endfacet
 facet normal 0.0387767 0.980048 0.194943
  outer loop
   vertex 0 3.74972 11.2503
   vertex 0 3.46429 12.6852
   vertex 4.3053 3.74972 10.3939
  endloop
 endfacet
 facet normal 0.0387767 0.980048 0.194944
  outer loop
   vertex 4.3053 3.74972 10.3939
   vertex 0 3.46429 12.6852
   vertex 4.85443 3.46429 11.7196
  endloop
 endfacet
 facet normal 0.110427 0.980048 0.165265
  outer loop
   vertex 4.3053 3.74972 10.3939
   vertex 4.85443 3.46429 11.7196
   vertex 7.95515 3.74972 7.95515
  endloop
 endfacet
 facet normal 0.110427 0.980048 0.165265
  outer loop
   vertex 7.95515 3.74972 7.95515
   vertex 4.85443 3.46429 11.7196
   vertex 8.96982 3.46429 8.96982
  endloop
 endfacet
 facet normal 0.165265 0.980048 0.110427
  outer loop
   vertex 7.95515 3.74972 7.95515
   vertex 8.96982 3.46429 8.96982
   vertex 10.3939 3.74972 4.3053
  endloop
 endfacet
 facet normal 0.165265 0.980048 0.110427
  outer loop
   vertex 10.3939 3.74972 4.3053
   vertex 8.96982 3.46429 8.96982
   vertex 11.7196 3.46429 4.85443
  endloop
 endfacet
 facet normal 0.194944 0.980048 0.0387767
  outer loop
   vertex 10.3939 3.74972 4.3053
   vertex 11.7196 3.46429 4.85443
   vertex 11.2503 3.74972 6.88881e-16
  endloop
 endfacet
 facet normal 0.194943 0.980048 0.0387767
  outer loop
   vertex 11.2503 3.74972 6.88881e-16
   vertex 11.7196 3.46429 4.85443
   vertex 12.6852 3.46429 7.76747e-16
  endloop
 endfacet
 facet normal 0.194943 0.980048 -0.0387767
  outer loop
   vertex 11.2503 3.74972 6.88881e-16
   vertex 12.6852 3.46429 7.76747e-16
   vertex 10.3939 3.74972 -4.3053
  endloop
 endfacet
 facet normal 0.194944 0.980048 -0.0387767
  outer loop
   vertex 10.3939 3.74972 -4.3053
   vertex 12.6852 3.46429 7.76747e-16
   vertex 11.7196 3.46429 -4.85443
  endloop
 endfacet
 facet normal 0.165265 0.980048 -0.110427
  outer loop
   vertex 10.3939 3.74972 -4.3053
   vertex 11.7196 3.46429 -4.85443
   vertex 7.95515 3.74972 -7.95515
  endloop
 endfacet
 facet normal 0.165265 0.980048 -0.110427
  outer loop
   vertex 7.95515 3.74972 -7.95515
   vertex 11.7196 3.46429 -4.85443
   vertex 8.96982 3.46429 -8.96982
  endloop
 endfacet
 facet normal 0.110427 0.980048 -0.165265
  outer loop
   vertex 7.95515 3.74972 -7.95515
   vertex 8.96982 3.46429 -8.96982
   vertex 4.3053 3.74972 -10.3939
  endloop
 endfacet
 facet normal 0.110427 0.980048 -0.165265
  outer loop
   vertex 4.3053 3.74972 -10.3939
   vertex 8.96982 3.46429 -8.96982
   vertex 4.85443 3.46429 -11.7196
  endloop
 endfacet
 facet normal 0.0387767 0.980048 -0.194944
  outer loop
   vertex 4.3053 3.74972 -10.3939
   vertex 4.85443 3.46429 -11.7196
   vertex 0 3.74972 -11.2503
  endloop
 endfacet
 facet normal 0.0387767 0.980048 -0.194943
  outer loop
   vertex 0 3.74972 -11.2503
   vertex 4.85443 3.46429 -11.7196
   vertex 0 3.46429 -12.6852
  endloop
 endfacet
 facet normal 0.0387766 0.980048 0.194943
  outer loop
   vertex 0 3.46429 -9.81533
   vertex 0 3.74972 -11.2503
   vertex -3.75616 3.46429 -9.06818
  endloop
 endfacet
 facet normal 0.0387767 0.980048 0.194944
  outer loop
   vertex -3.75616 3.46429 -9.06818
   vertex 0 3.74972 -11.2503
   vertex -4.3053 3.74972 -10.3939
  endloop
 endfacet
 facet normal 0.110427 0.980048 0.165265
  outer loop
   vertex -3.75616 3.46429 -9.06818
   vertex -4.3053 3.74972 -10.3939
   vertex -6.94048 3.46429 -6.94048
  endloop
 endfacet
 facet normal 0.110427 0.980048 0.165265
  outer loop
   vertex -6.94048 3.46429 -6.94048
   vertex -4.3053 3.74972 -10.3939
   vertex -7.95515 3.74972 -7.95515
  endloop
 endfacet
 facet normal 0.165265 0.980048 0.110427
  outer loop
   vertex -6.94048 3.46429 -6.94048
   vertex -7.95515 3.74972 -7.95515
   vertex -9.06818 3.46429 -3.75616
  endloop
 endfacet
 facet normal 0.165265 0.980048 0.110427
  outer loop
   vertex -9.06818 3.46429 -3.75616
   vertex -7.95515 3.74972 -7.95515
   vertex -10.3939 3.74972 -4.3053
  endloop
 endfacet
 facet normal 0.194944 0.980048 0.0387766
  outer loop
   vertex -9.06818 3.46429 -3.75616
   vertex -10.3939 3.74972 -4.3053
   vertex -9.81533 3.46429 6.01015e-16
  endloop
 endfacet
 facet normal 0.194943 0.980048 0.0387767
  outer loop
   vertex -9.81533 3.46429 6.01015e-16
   vertex -10.3939 3.74972 -4.3053
   vertex -11.2503 3.74972 6.88881e-16
  endloop
 endfacet
 facet normal 0.194943 0.980048 -0.0387766
  outer loop
   vertex -9.81533 3.46429 6.01015e-16
   vertex -11.2503 3.74972 6.88881e-16
   vertex -9.06818 3.46429 3.75616
  endloop
 endfacet
 facet normal 0.194944 0.980048 -0.0387767
  outer loop
   vertex -9.06818 3.46429 3.75616
   vertex -11.2503 3.74972 6.88881e-16
   vertex -10.3939 3.74972 4.3053
  endloop
 endfacet
 facet normal 0.165265 0.980048 -0.110427
  outer loop
   vertex -9.06818 3.46429 3.75616
   vertex -10.3939 3.74972 4.3053
   vertex -6.94048 3.46429 6.94048
  endloop
 endfacet
 facet normal 0.165265 0.980048 -0.110427
  outer loop
   vertex -6.94048 3.46429 6.94048
   vertex -10.3939 3.74972 4.3053
   vertex -7.95515 3.74972 7.95515
  endloop
 endfacet
 facet normal 0.110427 0.980048 -0.165265
  outer loop
   vertex -6.94048 3.46429 6.94048
   vertex -7.95515 3.74972 7.95515
   vertex -3.75616 3.46429 9.06818
  endloop
 endfacet
 facet normal 0.110427 0.980048 -0.165265
  outer loop
   vertex -3.75616 3.46429 9.06818
   vertex -7.95515 3.74972 7.95515
   vertex -4.3053 3.74972 10.3939
  endloop
 endfacet
 facet normal 0.0387766 0.980048 -0.194944
  outer loop
   vertex -3.75616 3.46429 9.06818
   vertex -4.3053 3.74972 10.3939
   vertex 0 3.46429 9.81533
  endloop
 endfacet
 facet normal 0.0387767 0.980048 -0.194943
  outer loop
   vertex 0 3.46429 9.81533
   vertex -4.3053 3.74972 10.3939
   vertex 0 3.74972 11.2503
  endloop
 endfacet
 facet normal -0.0387766 0.980048 -0.194943
  outer loop
   vertex 0 3.46429 9.81533
   vertex 0 3.74972 11.2503
   vertex 3.75616 3.46429 9.06818
  endloop
 endfacet
 facet normal -0.0387767 0.980048 -0.194944
  outer loop
   vertex 3.75616 3.46429 9.06818
   vertex 0 3.74972 11.2503
   vertex 4.3053 3.74972 10.3939
  endloop
 endfacet
 facet normal -0.110427 0.980048 -0.165265
  outer loop
   vertex 3.75616 3.46429 9.06818
   vertex 4.3053 3.74972 10.3939
   vertex 6.94048 3.46429 6.94048
  endloop
 endfacet
 facet normal -0.110427 0.980048 -0.165265
  outer loop
   vertex 6.94048 3.46429 6.94048
   vertex 4.3053 3.74972 10.3939
   vertex 7.95515 3.74972 7.95515
  endloop
 endfacet
 facet normal -0.165265 0.980048 -0.110427
  outer loop
   vertex 6.94048 3.46429 6.94048
   vertex 7.95515 3.74972 7.95515
   vertex 9.06818 3.46429 3.75616
  endloop
 endfacet
 facet normal -0.165265 0.980048 -0.110427
  outer loop
   vertex 9.06818 3.46429 3.75616
   vertex 7.95515 3.74972 7.95515
   vertex 10.3939 3.74972 4.3053
  endloop
 endfacet
 facet normal -0.194944 0.980048 -0.0387766
  outer loop
   vertex 9.06818 3.46429 3.75616
   vertex 10.3939 3.74972 4.3053
   vertex 9.81533 3.46429 6.01015e-16
  endloop
 endfacet
 facet normal -0.194943 0.980048 -0.0387767
  outer loop
   vertex 9.81533 3.46429 6.01015e-16
   vertex 10.3939 3.74972 4.3053
   vertex 11.2503 3.74972 6.88881e-16
  endloop
 endfacet
 facet normal -0.194943 0.980048 0.0387766
  outer loop
   vertex 9.81533 3.46429 6.01015e-16
   vertex 11.2503 3.74972 6.88881e-16
   vertex 9.06818 3.46429 -3.75616
  endloop
 endfacet
 facet normal -0.194944 0.980048 0.0387767
  outer loop
   vertex 9.06818 3.46429 -3.75616
   vertex 11.2503 3.74972 6.88881e-16
   vertex 10.3939 3.74972 -4.3053
  endloop
 endfacet
 facet normal -0.165265 0.980048 0.110427
  outer loop
   vertex 9.06818 3.46429 -3.75616
   vertex 10.3939 3.74972 -4.3053
   vertex 6.94048 3.46429 -6.94048
  endloop
 endfacet
 facet normal -0.165265 0.980048 0.110427
  outer loop
   vertex 6.94048 3.46429 -6.94048
   vertex 10.3939 3.74972 -4.3053
   vertex 7.95515 3.74972 -7.95515
  endloop
 endfacet
 facet normal -0.110427 0.980048 0.165265
  outer loop
   vertex 6.94048 3.46429 -6.94048
   vertex 7.95515 3.74972 -7.95515
   vertex 3.75616 3.46429 -9.06818
  endloop
 endfacet
 facet normal -0.110427 0.980048 0.165265
  outer loop
   vertex 3.75616 3.46429 -9.06818
   vertex 7.95515 3.74972 -7.95515
   vertex 4.3053 3.74972 -10.3939
  endloop
 endfacet
 facet normal -0.0387766 0.980048 0.194944
  outer loop
   vertex 3.75616 3.46429 -9.06818
   vertex 4.3053 3.74972 -10.3939
   vertex 0 3.46429 -9.81533
  endloop
 endfacet
 facet normal -0.0387767 0.980048 0.194943
  outer loop
   vertex 0 3.46429 -9.81533
   vertex 4.3053 3.74972 -10.3939
   vertex 0 3.74972 -11.2503
  endloop
 endfacet
 facet normal 0.109841 0.826439 0.552209
  outer loop
   vertex 0 2.65145 -8.59883
   vertex 0 3.46429 -9.81533
   vertex -3.29063 2.65145 -7.94428
  endloop
 endfacet
 facet normal 0.109841 0.826439 0.552208
  outer loop
   vertex -3.29063 2.65145 -7.94428
   vertex 0 3.46429 -9.81533
   vertex -3.75616 3.46429 -9.06818
  endloop
 endfacet
 facet normal 0.312801 0.826439 0.46814
  outer loop
   vertex -3.29063 2.65145 -7.94428
   vertex -3.75616 3.46429 -9.06818
   vertex -6.08029 2.65145 -6.08029
  endloop
 endfacet
 facet normal 0.312801 0.826439 0.46814
  outer loop
   vertex -6.08029 2.65145 -6.08029
   vertex -3.75616 3.46429 -9.06818
   vertex -6.94048 3.46429 -6.94048
  endloop
 endfacet
 facet normal 0.46814 0.826439 0.312801
  outer loop
   vertex -6.08029 2.65145 -6.08029
   vertex -6.94048 3.46429 -6.94048
   vertex -7.94428 2.65145 -3.29063
  endloop
 endfacet
 facet normal 0.46814 0.826439 0.312801
  outer loop
   vertex -7.94428 2.65145 -3.29063
   vertex -6.94048 3.46429 -6.94048
   vertex -9.06818 3.46429 -3.75616
  endloop
 endfacet
 facet normal 0.552208 0.826439 0.109841
  outer loop
   vertex -7.94428 2.65145 -3.29063
   vertex -9.06818 3.46429 -3.75616
   vertex -8.59883 2.65145 5.26526e-16
  endloop
 endfacet
 facet normal 0.552209 0.826439 0.109841
  outer loop
   vertex -8.59883 2.65145 5.26526e-16
   vertex -9.06818 3.46429 -3.75616
   vertex -9.81533 3.46429 6.01015e-16
  endloop
 endfacet
 facet normal 0.552209 0.826439 -0.109841
  outer loop
   vertex -8.59883 2.65145 5.26526e-16
   vertex -9.81533 3.46429 6.01015e-16
   vertex -7.94428 2.65145 3.29063
  endloop
 endfacet
 facet normal 0.552208 0.826439 -0.109841
  outer loop
   vertex -7.94428 2.65145 3.29063
   vertex -9.81533 3.46429 6.01015e-16
   vertex -9.06818 3.46429 3.75616
  endloop
 endfacet
 facet normal 0.46814 0.826439 -0.312801
  outer loop
   vertex -7.94428 2.65145 3.29063
   vertex -9.06818 3.46429 3.75616
   vertex -6.08029 2.65145 6.08029
  endloop
 endfacet
 facet normal 0.46814 0.826439 -0.312801
  outer loop
   vertex -6.08029 2.65145 6.08029
   vertex -9.06818 3.46429 3.75616
   vertex -6.94048 3.46429 6.94048
  endloop
 endfacet
 facet normal 0.312801 0.826439 -0.46814
  outer loop
   vertex -6.08029 2.65145 6.08029
   vertex -6.94048 3.46429 6.94048
   vertex -3.29063 2.65145 7.94428
  endloop
 endfacet
 facet normal 0.312801 0.826439 -0.46814
  outer loop
   vertex -3.29063 2.65145 7.94428
   vertex -6.94048 3.46429 6.94048
   vertex -3.75616 3.46429 9.06818
  endloop
 endfacet
 facet normal 0.109841 0.826439 -0.552208
  outer loop
   vertex -3.29063 2.65145 7.94428
   vertex -3.75616 3.46429 9.06818
   vertex 0 2.65145 8.59883
  endloop
 endfacet
 facet normal 0.109841 0.826439 -0.552209
  outer loop
   vertex 0 2.65145 8.59883
   vertex -3.75616 3.46429 9.06818
   vertex 0 3.46429 9.81533
  endloop
 endfacet
 facet normal -0.109841 0.826439 -0.552209
  outer loop
   vertex 0 2.65145 8.59883
   vertex 0 3.46429 9.81533
   vertex 3.29063 2.65145 7.94428
  endloop
 endfacet
 facet normal -0.109841 0.826439 -0.552208
  outer loop
   vertex 3.29063 2.65145 7.94428
   vertex 0 3.46429 9.81533
   vertex 3.75616 3.46429 9.06818
  endloop
 endfacet
 facet normal -0.312801 0.826439 -0.46814
  outer loop
   vertex 3.29063 2.65145 7.94428
   vertex 3.75616 3.46429 9.06818
   vertex 6.08029 2.65145 6.08029
  endloop
 endfacet
 facet normal -0.312801 0.826439 -0.46814
  outer loop
   vertex 6.08029 2.65145 6.08029
   vertex 3.75616 3.46429 9.06818
   vertex 6.94048 3.46429 6.94048
  endloop
 endfacet
 facet normal -0.46814 0.826439 -0.312801
  outer loop
   vertex 6.08029 2.65145 6.08029
   vertex 6.94048 3.46429 6.94048
   vertex 7.94428 2.65145 3.29063
  endloop
 endfacet
 facet normal -0.46814 0.826439 -0.312801
  outer loop
   vertex 7.94428 2.65145 3.29063
   vertex 6.94048 3.46429 6.94048
   vertex 9.06818 3.46429 3.75616
  endloop
 endfacet
 facet normal -0.552208 0.826439 -0.109841
  outer loop
   vertex 7.94428 2.65145 3.29063
   vertex 9.06818 3.46429 3.75616
   vertex 8.59883 2.65145 5.26526e-16
  endloop
 endfacet
 facet normal -0.552209 0.826439 -0.109841
  outer loop
   vertex 8.59883 2.65145 5.26526e-16
   vertex 9.06818 3.46429 3.75616
   vertex 9.81533 3.46429 6.01015e-16
  endloop
 endfacet
 facet normal -0.552209 0.826439 0.109841
  outer loop
   vertex 8.59883 2.65145 5.26526e-16
   vertex 9.81533 3.46429 6.01015e-16
   vertex 7.94428 2.65145 -3.29063
  endloop
 endfacet
 facet normal -0.552208 0.826439 0.109841
  outer loop
   vertex 7.94428 2.65145 -3.29063
   vertex 9.81533 3.46429 6.01015e-16
   vertex 9.06818 3.46429 -3.75616
  endloop
 endfacet
 facet normal -0.46814 0.826439 0.312801
  outer loop
   vertex 7.94428 2.65145 -3.29063
   vertex 9.06818 3.46429 -3.75616
   vertex 6.08029 2.65145 -6.08029
  endloop
 endfacet
 facet normal -0.46814 0.826439 0.312801
  outer loop
   vertex 6.08029 2.65145 -6.08029
   vertex 9.06818 3.46429 -3.75616
   vertex 6.94048 3.46429 -6.94048
  endloop
 endfacet
 facet normal -0.312801 0.826439 0.46814
  outer loop
   vertex 6.08029 2.65145 -6.08029
   vertex 6.94048 3.46429 -6.94048
   vertex 3.29063 2.65145 -7.94428
  endloop
 endfacet
 facet normal -0.312801 0.826439 0.46814
  outer loop
   vertex 3.29063 2.65145 -7.94428
   vertex 6.94048 3.46429 -6.94048
   vertex 3.75616 3.46429 -9.06818
  endloop
 endfacet
 facet normal -0.109841 0.826439 0.552208
  outer loop
   vertex 3.29063 2.65145 -7.94428
   vertex 3.75616 3.46429 -9.06818
   vertex 0 2.65145 -8.59883
  endloop
 endfacet
 facet normal -0.109841 0.826439 0.552209
  outer loop
   vertex 0 2.65145 -8.59883
   vertex 3.75616 3.46429 -9.06818
   vertex 0 3.46429 -9.81533
  endloop
 endfacet
 facet normal 0.163173 0.548124 0.820326
  outer loop
   vertex 0 1.43496 -7.78599
   vertex 0 2.65145 -8.59883
   vertex -2.97957 1.43496 -7.19332
  endloop
 endfacet
 facet normal 0.163173 0.548124 0.820326
  outer loop
   vertex -2.97957 1.43496 -7.19332
   vertex 0 2.65145 -8.59883
   vertex -3.29063 2.65145 -7.94428
  endloop
 endfacet
 facet normal 0.464677 0.548124 0.695439
  outer loop
   vertex -2.97957 1.43496 -7.19332
   vertex -3.29063 2.65145 -7.94428
   vertex -5.50553 1.43496 -5.50553
  endloop
 endfacet
 facet normal 0.464677 0.548124 0.695439
  outer loop
   vertex -5.50553 1.43496 -5.50553
   vertex -3.29063 2.65145 -7.94428
   vertex -6.08029 2.65145 -6.08029
  endloop
 endfacet
 facet normal 0.695439 0.548124 0.464677
  outer loop
   vertex -5.50553 1.43496 -5.50553
   vertex -6.08029 2.65145 -6.08029
   vertex -7.19332 1.43496 -2.97957
  endloop
 endfacet
 facet normal 0.695439 0.548124 0.464677
  outer loop
   vertex -7.19332 1.43496 -2.97957
   vertex -6.08029 2.65145 -6.08029
   vertex -7.94428 2.65145 -3.29063
  endloop
 endfacet
 facet normal 0.820326 0.548124 0.163173
  outer loop
   vertex -7.19332 1.43496 -2.97957
   vertex -7.94428 2.65145 -3.29063
   vertex -7.78599 1.43496 4.76755e-16
  endloop
 endfacet
 facet normal 0.820326 0.548124 0.163173
  outer loop
   vertex -7.78599 1.43496 4.76755e-16
   vertex -7.94428 2.65145 -3.29063
   vertex -8.59883 2.65145 5.26526e-16
  endloop
 endfacet
 facet normal 0.820326 0.548124 -0.163173
  outer loop
   vertex -7.78599 1.43496 4.76755e-16
   vertex -8.59883 2.65145 5.26526e-16
   vertex -7.19332 1.43496 2.97957
  endloop
 endfacet
 facet normal 0.820326 0.548124 -0.163173
  outer loop
   vertex -7.19332 1.43496 2.97957
   vertex -8.59883 2.65145 5.26526e-16
   vertex -7.94428 2.65145 3.29063
  endloop
 endfacet
 facet normal 0.695439 0.548124 -0.464677
  outer loop
   vertex -7.19332 1.43496 2.97957
   vertex -7.94428 2.65145 3.29063
   vertex -5.50553 1.43496 5.50553
  endloop
 endfacet
 facet normal 0.695439 0.548124 -0.464677
  outer loop
   vertex -5.50553 1.43496 5.50553
   vertex -7.94428 2.65145 3.29063
   vertex -6.08029 2.65145 6.08029
  endloop
 endfacet
 facet normal 0.464677 0.548124 -0.695439
  outer loop
   vertex -5.50553 1.43496 5.50553
   vertex -6.08029 2.65145 6.08029
   vertex -2.97957 1.43496 7.19332
  endloop
 endfacet
 facet normal 0.464677 0.548124 -0.695439
  outer loop
   vertex -2.97957 1.43496 7.19332
   vertex -6.08029 2.65145 6.08029
   vertex -3.29063 2.65145 7.94428
  endloop
 endfacet
 facet normal 0.163173 0.548124 -0.820326
  outer loop
   vertex -2.97957 1.43496 7.19332
   vertex -3.29063 2.65145 7.94428
   vertex 0 1.43496 7.78599
  endloop
 endfacet
 facet normal 0.163173 0.548124 -0.820326
  outer loop
   vertex 0 1.43496 7.78599
   vertex -3.29063 2.65145 7.94428
   vertex 0 2.65145 8.59883
  endloop
 endfacet
 facet normal -0.163173 0.548124 -0.820326
  outer loop
   vertex 0 1.43496 7.78599
   vertex 0 2.65145 8.59883
   vertex 2.97957 1.43496 7.19332
  endloop
 endfacet
 facet normal -0.163173 0.548124 -0.820326
  outer loop
   vertex 2.97957 1.43496 7.19332
   vertex 0 2.65145 8.59883
   vertex 3.29063 2.65145 7.94428
  endloop
 endfacet
 facet normal -0.464677 0.548124 -0.695439
  outer loop
   vertex 2.97957 1.43496 7.19332
   vertex 3.29063 2.65145 7.94428
   vertex 5.50553 1.43496 5.50553
  endloop
 endfacet
 facet normal -0.464677 0.548124 -0.695439
  outer loop
   vertex 5.50553 1.43496 5.50553
   vertex 3.29063 2.65145 7.94428
   vertex 6.08029 2.65145 6.08029
  endloop
 endfacet
 facet normal -0.695439 0.548124 -0.464677
  outer loop
   vertex 5.50553 1.43496 5.50553
   vertex 6.08029 2.65145 6.08029
   vertex 7.19332 1.43496 2.97957
  endloop
 endfacet
 facet normal -0.695439 0.548124 -0.464677
  outer loop
   vertex 7.19332 1.43496 2.97957
   vertex 6.08029 2.65145 6.08029
   vertex 7.94428 2.65145 3.29063
  endloop
 endfacet
 facet normal -0.820326 0.548124 -0.163173
  outer loop
   vertex 7.19332 1.43496 2.97957
   vertex 7.94428 2.65145 3.29063
   vertex 7.78599 1.43496 4.76755e-16
  endloop
 endfacet
 facet normal -0.820326 0.548124 -0.163173
  outer loop
   vertex 7.78599 1.43496 4.76755e-16
   vertex 7.94428 2.65145 3.29063
   vertex 8.59883 2.65145 5.26526e-16
  endloop
 endfacet
 facet normal -0.820326 0.548124 0.163173
  outer loop
   vertex 7.78599 1.43496 4.76755e-16
   vertex 8.59883 2.65145 5.26526e-16
   vertex 7.19332 1.43496 -2.97957
  endloop
 endfacet
 facet normal -0.820326 0.548124 0.163173
  outer loop
   vertex 7.19332 1.43496 -2.97957
   vertex 8.59883 2.65145 5.26526e-16
   vertex 7.94428 2.65145 -3.29063
  endloop
 endfacet
 facet normal -0.695439 0.548124 0.464677
  outer loop
   vertex 7.19332 1.43496 -2.97957
   vertex 7.94428 2.65145 -3.29063
   vertex 5.50553 1.43496 -5.50553
  endloop
 endfacet
 facet normal -0.695439 0.548124 0.464677
  outer loop
   vertex 5.50553 1.43496 -5.50553
   vertex 7.94428 2.65145 -3.29063
   vertex 6.08029 2.65145 -6.08029
  endloop
 endfacet
 facet normal -0.464677 0.548124 0.695439
  outer loop
   vertex 5.50553 1.43496 -5.50553
   vertex 6.08029 2.65145 -6.08029
   vertex 2.97957 1.43496 -7.19332
  endloop
 endfacet
 facet normal -0.464677 0.548124 0.695439
  outer loop
   vertex 2.97957 1.43496 -7.19332
   vertex 6.08029 2.65145 -6.08029
   vertex 3.29063 2.65145 -7.94428
  endloop
 endfacet
 facet normal -0.163173 0.548124 0.820326
  outer loop
   vertex 2.97957 1.43496 -7.19332
   vertex 3.29063 2.65145 -7.94428
   vertex 0 1.43496 -7.78599
  endloop
 endfacet
 facet normal -0.163173 0.548124 0.820326
  outer loop
   vertex 0 1.43496 -7.78599
   vertex 3.29063 2.65145 -7.94428
   vertex 0 2.65145 -8.59883
  endloop
 endfacet
 facet normal 0.191481 0.19148 0.962637
  outer loop
   vertex 0 0 -7.50056
   vertex 0 1.43496 -7.78599
   vertex -2.87034 0 -6.92962
  endloop
 endfacet
 facet normal 0.19148 0.19148 0.962637
  outer loop
   vertex -2.87034 0 -6.92962
   vertex 0 1.43496 -7.78599
   vertex -2.97957 1.43496 -7.19332
  endloop
 endfacet
 facet normal 0.54529 0.19148 0.816084
  outer loop
   vertex -2.87034 0 -6.92962
   vertex -2.97957 1.43496 -7.19332
   vertex -5.3037 0 -5.3037
  endloop
 endfacet
 facet normal 0.54529 0.191481 0.816084
  outer loop
   vertex -5.3037 0 -5.3037
   vertex -2.97957 1.43496 -7.19332
   vertex -5.50553 1.43496 -5.50553
  endloop
 endfacet
 facet normal 0.816084 0.191481 0.54529
  outer loop
   vertex -5.3037 0 -5.3037
   vertex -5.50553 1.43496 -5.50553
   vertex -6.92962 0 -2.87034
  endloop
 endfacet
 facet normal 0.816085 0.19148 0.54529
  outer loop
   vertex -6.92962 0 -2.87034
   vertex -5.50553 1.43496 -5.50553
   vertex -7.19332 1.43496 -2.97957
  endloop
 endfacet
 facet normal 0.962637 0.191481 0.191481
  outer loop
   vertex -6.92962 0 -2.87034
   vertex -7.19332 1.43496 -2.97957
   vertex -7.50056 0 4.59277e-16
  endloop
 endfacet
 facet normal 0.962637 0.19148 0.19148
  outer loop
   vertex -7.50056 0 4.59277e-16
   vertex -7.19332 1.43496 -2.97957
   vertex -7.78599 1.43496 4.76755e-16
  endloop
 endfacet
 facet normal 0.962637 0.19148 -0.191481
  outer loop
   vertex -7.50056 0 4.59277e-16
   vertex -7.78599 1.43496 4.76755e-16
   vertex -6.92962 0 2.87034
  endloop
 endfacet
 facet normal 0.962637 0.19148 -0.19148
  outer loop
   vertex -6.92962 0 2.87034
   vertex -7.78599 1.43496 4.76755e-16
   vertex -7.19332 1.43496 2.97957
  endloop
 endfacet
 facet normal 0.816084 0.19148 -0.54529
  outer loop
   vertex -6.92962 0 2.87034
   vertex -7.19332 1.43496 2.97957
   vertex -5.3037 0 5.3037
  endloop
 endfacet
 facet normal 0.816084 0.191481 -0.54529
  outer loop
   vertex -5.3037 0 5.3037
   vertex -7.19332 1.43496 2.97957
   vertex -5.50553 1.43496 5.50553
  endloop
 endfacet
 facet normal 0.54529 0.191481 -0.816084
  outer loop
   vertex -5.3037 0 5.3037
   vertex -5.50553 1.43496 5.50553
   vertex -2.87034 0 6.92962
  endloop
 endfacet
 facet normal 0.54529 0.19148 -0.816085
  outer loop
   vertex -2.87034 0 6.92962
   vertex -5.50553 1.43496 5.50553
   vertex -2.97957 1.43496 7.19332
  endloop
 endfacet
 facet normal 0.191481 0.191481 -0.962637
  outer loop
   vertex -2.87034 0 6.92962
   vertex -2.97957 1.43496 7.19332
   vertex 0 0 7.50056
  endloop
 endfacet
 facet normal 0.19148 0.19148 -0.962637
  outer loop
   vertex 0 0 7.50056
   vertex -2.97957 1.43496 7.19332
   vertex 0 1.43496 7.78599
  endloop
 endfacet
 facet normal -0.191481 0.19148 -0.962637
  outer loop
   vertex 0 0 7.50056
   vertex 0 1.43496 7.78599
   vertex 2.87034 0 6.92962
  endloop
 endfacet
 facet normal -0.19148 0.19148 -0.962637
  outer loop
   vertex 2.87034 0 6.92962
   vertex 0 1.43496 7.78599
   vertex 2.97957 1.43496 7.19332
  endloop
 endfacet
 facet normal -0.54529 0.19148 -0.816084
  outer loop
   vertex 2.87034 0 6.92962
   vertex 2.97957 1.43496 7.19332
   vertex 5.3037 0 5.3037
  endloop
 endfacet
 facet normal -0.54529 0.191481 -0.816084
  outer loop
   vertex 5.3037 0 5.3037
   vertex 2.97957 1.43496 7.19332
   vertex 5.50553 1.43496 5.50553
  endloop
 endfacet
 facet normal -0.816084 0.191481 -0.54529
  outer loop
   vertex 5.3037 0 5.3037
   vertex 5.50553 1.43496 5.50553
   vertex 6.92962 0 2.87034
  endloop
 endfacet
 facet normal -0.816085 0.19148 -0.54529
  outer loop
   vertex 6.92962 0 2.87034
   vertex 5.50553 1.43496 5.50553
   vertex 7.19332 1.43496 2.97957
  endloop
 endfacet
 facet normal -0.962637 0.191481 -0.191481
  outer loop
   vertex 6.92962 0 2.87034
   vertex 7.19332 1.43496 2.97957
   vertex 7.50056 0 4.59277e-16
  endloop
 endfacet
 facet normal -0.962637 0.19148 -0.19148
  outer loop
   vertex 7.50056 0 4.59277e-16
   vertex 7.19332 1.43496 2.97957
   vertex 7.78599 1.43496 4.76755e-16
  endloop
 endfacet
 facet normal -0.962637 0.19148 0.191481
  outer loop
   vertex 7.50056 0 4.59277e-16
   vertex 7.78599 1.43496 4.76755e-16
   vertex 6.92962 0 -2.87034
  endloop
 endfacet
 facet normal -0.962637 0.19148 0.19148
  outer loop
   vertex 6.92962 0 -2.87034
   vertex 7.78599 1.43496 4.76755e-16
   vertex 7.19332 1.43496 -2.97957
  endloop
 endfacet
 facet normal -0.816084 0.19148 0.54529
  outer loop
   vertex 6.92962 0 -2.87034
   vertex 7.19332 1.43496 -2.97957
   vertex 5.3037 0 -5.3037
  endloop
 endfacet
 facet normal -0.816084 0.191481 0.54529
  outer loop
   vertex 5.3037 0 -5.3037
   vertex 7.19332 1.43496 -2.97957
   vertex 5.50553 1.43496 -5.50553
  endloop
 endfacet
 facet normal -0.54529 0.191481 0.816084
  outer loop
   vertex 5.3037 0 -5.3037
   vertex 5.50553 1.43496 -5.50553
   vertex 2.87034 0 -6.92962
  endloop
 endfacet
 facet normal -0.54529 0.19148 0.816085
  outer loop
   vertex 2.87034 0 -6.92962
   vertex 5.50553 1.43496 -5.50553
   vertex 2.97957 1.43496 -7.19332
  endloop
 endfacet
 facet normal -0.191481 0.191481 0.962637
  outer loop
   vertex 2.87034 0 -6.92962
   vertex 2.97957 1.43496 -7.19332
   vertex 0 0 -7.50056
  endloop
 endfacet
 facet normal -0.19148 0.19148 0.962637
  outer loop
   vertex 0 0 -7.50056
   vertex 2.97957 1.43496 -7.19332
   vertex 0 1.43496 -7.78599
  endloop
 endfacet
endsolid
