solid ascii
 facet normal 0.866025 0 -0.5
  outer loop
   vertex 6 50 0
   vertex 6 -50 0
   vertex 3 50 -5.19615
  endloop
 endfacet
 facet normal 0.866025 0 -0.5
  outer loop
   vertex 3 -50 -5.19615
   vertex 3 50 -5.19615
   vertex 6 -50 0
  endloop
 endfacet
 facet normal 0 0 -1
  outer loop
   vertex 3 50 -5.19615
   vertex 3 -50 -5.19615
   vertex -3 50 -5.19615
  endloop
 endfacet
 facet normal 0 0 -1
  outer loop
   vertex -3 -50 -5.19615
   vertex -3 50 -5.19615
   vertex 3 -50 -5.19615
  endloop
 endfacet
 facet normal -0.866025 0 -0.5
  outer loop
   vertex -3 50 -5.19615
   vertex -3 -50 -5.19615
   vertex -6 50 -7.34788e-16
  endloop
 endfacet
 facet normal -0.866025 -0 -0.5
  outer loop
   vertex -6 -50 -7.34788e-16
   vertex -6 50 -7.34788e-16
   vertex -3 -50 -5.19615
  endloop
 endfacet
 facet normal -0.866025 0 0.5
  outer loop
   vertex -6 50 -7.34788e-16
   vertex -6 -50 -7.34788e-16
   vertex -3 50 5.19615
  endloop
 endfacet
 facet normal -0.866025 0 0.5
  outer loop
   vertex -3 -50 5.19615
   vertex -3 50 5.19615
   vertex -6 -50 -7.34788e-16
  endloop
 endfacet
 facet normal 0 0 1
  outer loop
   vertex -3 50 5.19615
   vertex -3 -50 5.19615
   vertex 3 50 5.19615
  endloop
 endfacet
 facet normal 0 0 1
  outer loop
   vertex 3 -50 5.19615
   vertex 3 50 5.19615
   vertex -3 -50 5.19615
  endloop
 endfacet
 facet normal 0.866025 -0 0.5
  outer loop
   vertex 3 50 5.19615
   vertex 3 -50 5.19615
   vertex 6 50 0
  endloop
 endfacet
 facet normal 0.866025 0 0.5
  outer loop
   vertex 6 -50 0
   vertex 6 50 0
   vertex 3 -50 5.19615
  endloop
 endfacet
 facet normal 0 1 0
  outer loop
   vertex 6 50 0
   vertex 3 50 -5.19615
   vertex 3 50 5.19615
  endloop
 endfacet
 facet normal 0 1 -0
  outer loop
   vertex 3 50 5.19615
   vertex 3 50 -5.19615
   vertex -3 50 5.19615
  endloop
 endfacet
 facet normal 0 1 0
  outer loop
   vertex 3 50 -5.19615
   vertex -3 50 -5.19615
   vertex -3 50 5.19615
  endloop
 endfacet
 facet normal 0 1 0
  outer loop
   vertex -6 50 -7.34788e-16
   vertex -3 50 5.19615
   vertex -3 50 -5.19615
  endloop
 endfacet
 facet normal 0 -1 0
  outer loop
   vertex -6 -50 -7.34788e-16
   vertex -3 -50 -5.19615
   vertex -3 -50 5.19615
  endloop
 endfacet
 facet normal 0 -1 0
  outer loop
   vertex -3 -50 5.19615
   vertex -3 -50 -5.19615
   vertex 3 -50 5.19615
  endloop
 endfacet
 facet normal 0 -1 0
  outer loop
   vertex -3 -50 -5.19615
   vertex 3 -50 -5.19615
   vertex 3 -50 5.19615
  endloop
 endfacet
 facet normal 0 -1 0
  outer loop
   vertex 3 -50 5.19615
   vertex 3 -50 -5.19615
   vertex 6 -50 0
  endloop
 endfacet
endsolid
